DecovarA2 part1.ufo
<glyph name="parenleft" format="2">
  <advance width="696"/>
  <unicode hex="0028"/>
  <outline>
    <contour>
      <point x="492" y="557" type="move"/>
    </contour>
    <component base="part1" xOffset="97" yOffset="533"/>
  </outline>
</glyph>
<glyph name="eight" format="2">
  <advance width="1064"/>
  <unicode hex="0038"/>
  <outline>
    <contour>
      <point x="788" y="1125" type="qcurve"/>
      <point x="746" y="1125"/>
      <point x="746" y="1125"/>
      <point x="739" y="1149" type="qcurve"/>
      <point x="730" y="1174"/>
      <point x="687" y="1216"/>
      <point x="658" y="1227" type="qcurve"/>
      <point x="614" y="1239"/>
      <point x="614" y="1239"/>
      <point x="614" y="1278" type="qcurve"/>
      <point x="614" y="1321"/>
      <point x="614" y="1321"/>
      <point x="658" y="1311" type="qcurve"/>
      <point x="714" y="1294"/>
      <point x="796" y="1227"/>
      <point x="821" y="1164" type="qcurve"/>
      <point x="831" y="1125"/>
      <point x="831" y="1125"/>
    </contour>
    <contour>
      <point x="874" y="1125" type="qcurve"/>
      <point x="831" y="1125"/>
      <point x="831" y="1125"/>
      <point x="821" y="1164" type="qcurve"/>
      <point x="796" y="1227"/>
      <point x="714" y="1294"/>
      <point x="658" y="1311" type="qcurve"/>
      <point x="614" y="1321"/>
      <point x="614" y="1321"/>
      <point x="614" y="1361" type="qcurve"/>
      <point x="614" y="1402"/>
      <point x="614" y="1402"/>
      <point x="659" y="1394" type="qcurve"/>
      <point x="775" y="1369"/>
      <point x="884" y="1264"/>
      <point x="906" y="1175" type="qcurve"/>
      <point x="915" y="1125"/>
      <point x="915" y="1125"/>
    </contour>
    <component base="part4a" xScale="3.3306690738754686e-16" xyScale="-0.9277978945011396" yxScale="1" yScale="3.0901877540217205e-16" xOffset="533" yOffset="835"/>
    <component base="part4a" xScale="-3.3306690738754696e-16" xyScale="0.9277978945011396" yxScale="-1" yScale="-2.7755575615628914e-16" xOffset="533" yOffset="682"/>
    <component base="part1a" xScale="-1.0094488871518628" xyScale="-1.2490009027033009e-16" yxScale="1.2608025712855177e-16" yScale="-1.000000000000001" xOffset="255" yOffset="1084"/>
    <component base="part1a" xScale="1.7345080969607587e-16" xyScale="-0.9104938103409985" yxScale="1.032278042401301" yScale="1.325747097070208e-16" xOffset="-173" yOffset="118"/>
    <component base="part1a" xScale="1.0094488871518634" xyScale="2.220446049250313e-16" yxScale="-1.1102230246251565e-16" yScale="1.0000000000000013" xOffset="811" yOffset="-284"/>
    <component base="part1i"/>
    <component base="part1j"/>
    <component base="part5zi"/>
    <component base="part1zj"/>
    <component base="part1k" xOffset="10"/>
    <component base="part1zk"/>
    <component base="part1zl"/>
    <component base="part1zm"/>
    <component base="part1zn"/>
  </outline>
</glyph>
<glyph name="colon" format="2">
  <advance width="504"/>
  <unicode hex="003A"/>
  <outline>
    <contour>
      <point x="252" y="-30" type="line"/>
      <point x="418" y="136" type="line"/>
      <point x="252" y="304" type="line"/>
      <point x="86" y="136" type="line"/>
    </contour>
    <contour>
      <point x="252" y="620" type="line"/>
      <point x="418" y="786" type="line"/>
      <point x="252" y="954" type="line"/>
      <point x="86" y="786" type="line"/>
    </contour>
  </outline>
</glyph>
<glyph name="semicolon" format="2">
  <advance width="504"/>
  <unicode hex="003B"/>
  <outline>
    <contour>
      <point x="201" y="-255" type="line"/>
      <point x="423" y="-27" type="line"/>
      <point x="301" y="91" type="line"/>
      <point x="78" y="-138" type="line"/>
    </contour>
    <contour>
      <point x="254" y="-30" type="line"/>
      <point x="420" y="136" type="line"/>
      <point x="254" y="304" type="line"/>
      <point x="88" y="136" type="line"/>
    </contour>
    <contour>
      <point x="254" y="620" type="line"/>
      <point x="420" y="786" type="line"/>
      <point x="254" y="954" type="line"/>
      <point x="88" y="786" type="line"/>
    </contour>
  </outline>
</glyph>
<glyph name="less" format="2">
  <advance width="665"/>
  <unicode hex="003C"/>
  <outline>
    <contour>
      <point x="615" y="255" type="line"/>
      <point x="615" y="452" type="line"/>
      <point x="260" y="680" type="line"/>
      <point x="615" y="918" type="line"/>
      <point x="615" y="1105" type="line"/>
      <point x="80" y="750" type="line"/>
      <point x="80" y="610" type="line"/>
    </contour>
  </outline>
</glyph>
<glyph name="equal" format="2">
  <advance width="1040"/>
  <unicode hex="003D"/>
  <outline>
    <contour>
      <point x="130" y="394" type="line"/>
      <point x="930" y="394" type="line"/>
      <point x="930" y="556" type="line"/>
      <point x="130" y="556" type="line"/>
    </contour>
    <contour>
      <point x="130" y="784" type="line"/>
      <point x="930" y="784" type="line"/>
      <point x="930" y="946" type="line"/>
      <point x="130" y="946" type="line"/>
    </contour>
  </outline>
</glyph>
<glyph name="g" format="2">
  <advance width="1092"/>
  <unicode hex="0067"/>
  <anchor x="461.0" y="960.0" name="top"/>
  <outline>
    <contour>
      <point x="481" y="-364" type="qcurve" smooth="yes"/>
      <point x="659" y="-364"/>
      <point x="862" y="-122"/>
      <point x="862" y="73" type="qcurve" smooth="yes"/>
      <point x="862" y="960" type="line"/>
      <point x="842" y="960" type="line"/>
      <point x="842" y="712" type="line"/>
      <point x="841" y="712" type="line"/>
      <point x="813" y="831"/>
      <point x="627" y="976"/>
      <point x="474" y="976" type="qcurve" smooth="yes"/>
      <point x="275" y="976"/>
      <point x="62" y="707"/>
      <point x="62" y="484" type="qcurve" smooth="yes"/>
      <point x="62" y="265"/>
      <point x="279" y="-12"/>
      <point x="492" y="-12" type="qcurve" smooth="yes"/>
      <point x="643" y="-12"/>
      <point x="822" y="145"/>
      <point x="839" y="242" type="qcurve"/>
      <point x="841" y="242" type="line"/>
      <point x="841" y="76" type="line" smooth="yes"/>
      <point x="841" y="-113"/>
      <point x="650" y="-346"/>
      <point x="479" y="-346" type="qcurve" smooth="yes"/>
      <point x="342" y="-346"/>
      <point x="154" y="-250"/>
      <point x="142" y="-172" type="qcurve"/>
      <point x="127" y="-167" type="line"/>
      <point x="131" y="-254"/>
      <point x="325" y="-364"/>
    </contour>
    <contour>
      <point x="495" y="8" type="qcurve" smooth="yes"/>
      <point x="292" y="8"/>
      <point x="85" y="272"/>
      <point x="85" y="484" type="qcurve" smooth="yes"/>
      <point x="85" y="699"/>
      <point x="284" y="956"/>
      <point x="475" y="956" type="qcurve" smooth="yes"/>
      <point x="660.0" y="956.0"/>
      <point x="841.0" y="737"/>
      <point x="841.0" y="568" type="qcurve" smooth="yes"/>
      <point x="841.0" y="388" type="line" smooth="yes"/>
      <point x="841.0" y="213.0"/>
      <point x="658" y="8.0"/>
    </contour>
    <contour>
      <point x="171" y="-211" type="qcurve" smooth="yes"/>
      <point x="191" y="-211"/>
      <point x="216" y="-189"/>
      <point x="216" y="-167" type="qcurve" smooth="yes"/>
      <point x="216" y="-148"/>
      <point x="192" y="-123"/>
      <point x="171" y="-123" type="qcurve" smooth="yes"/>
      <point x="150" y="-123"/>
      <point x="127" y="-149"/>
      <point x="127" y="-167" type="qcurve" smooth="yes"/>
      <point x="127" y="-188"/>
      <point x="152" y="-211"/>
    </contour>
    <contour>
      <point x="852" y="940" type="line"/>
      <point x="1027" y="940" type="line"/>
      <point x="1027" y="960" type="line"/>
      <point x="852" y="960" type="line"/>
    </contour>
  </outline>
</glyph>
<glyph name="k" format="2">
  <advance width="1056"/>
  <unicode hex="006B"/>
  <outline>
    <contour>
      <point x="870" y="0" type="line"/>
      <point x="895" y="0" type="line"/>
      <point x="779" y="304" type="line" smooth="yes"/>
      <point x="735" y="420"/>
      <point x="579" y="522"/>
      <point x="490" y="522" type="qcurve" smooth="yes"/>
      <point x="475" y="522" type="line"/>
      <point x="243" y="522" type="line"/>
      <point x="243" y="503" type="line"/>
      <point x="473" y="503" type="line" smooth="yes"/>
      <point x="572" y="503"/>
      <point x="719" y="404"/>
      <point x="759" y="297" type="qcurve" smooth="yes"/>
    </contour>
    <contour>
      <point x="68" y="0" type="line"/>
      <point x="424" y="0" type="line"/>
      <point x="424" y="20" type="line"/>
      <point x="248" y="20" type="line"/>
      <point x="239" y="20" type="line"/>
      <point x="68" y="20" type="line"/>
    </contour>
    <contour>
      <point x="233" y="0" type="line"/>
      <point x="254" y="0" type="line"/>
      <point x="254" y="506" type="line"/>
      <point x="254" y="516" type="line"/>
      <point x="254" y="1430" type="line"/>
      <point x="233" y="1430" type="line"/>
    </contour>
    <contour>
      <point x="790" y="940" type="line"/>
      <point x="966" y="940" type="line"/>
      <point x="966" y="960" type="line"/>
      <point x="534" y="960" type="line"/>
      <point x="534" y="940" type="line"/>
      <point x="779" y="940" type="line"/>
    </contour>
    <contour>
      <point x="671" y="0" type="line"/>
      <point x="1056" y="0" type="line"/>
      <point x="1056" y="20" type="line"/>
      <point x="878" y="20" type="line"/>
      <point x="871" y="20" type="line"/>
      <point x="671" y="20" type="line"/>
    </contour>
    <contour>
      <point x="68" y="1410" type="line"/>
      <point x="244" y="1410" type="line"/>
      <point x="244" y="1430" type="line"/>
      <point x="68" y="1430" type="line"/>
    </contour>
    <contour>
      <point x="466" y="512" type="line"/>
      <point x="491" y="512" type="line"/>
      <point x="804" y="952" type="line"/>
      <point x="785" y="960" type="line"/>
    </contour>
  </outline>
</glyph>
<glyph name="s" format="2">
  <advance width="874"/>
  <unicode hex="0073"/>
  <anchor x="460.0" y="960.0" name="top"/>
  <outline>
    <contour>
      <point x="502" y="-14" type="qcurve" smooth="yes"/>
      <point x="649" y="-14"/>
      <point x="802" y="121"/>
      <point x="802" y="245" type="qcurve" smooth="yes"/>
      <point x="802" y="361"/>
      <point x="671" y="484"/>
      <point x="475" y="532" type="qcurve" smooth="yes"/>
      <point x="295" y="576"/>
      <point x="147" y="666"/>
      <point x="147" y="755" type="qcurve" smooth="yes"/>
      <point x="147" y="851"/>
      <point x="320" y="962"/>
      <point x="459" y="962" type="qcurve" smooth="yes"/>
      <point x="557" y="962"/>
      <point x="695" y="923"/>
      <point x="738" y="894" type="qcurve"/>
      <point x="738" y="917" type="line"/>
      <point x="696" y="944"/>
      <point x="561" y="982"/>
      <point x="461" y="982" type="qcurve" smooth="yes"/>
      <point x="311" y="982"/>
      <point x="126" y="860"/>
      <point x="126" y="753" type="qcurve" smooth="yes"/>
      <point x="126" y="655"/>
      <point x="284" y="556"/>
      <point x="469" y="512" type="qcurve" smooth="yes"/>
      <point x="659" y="465"/>
      <point x="781" y="352"/>
      <point x="781" y="242" type="qcurve" smooth="yes"/>
      <point x="781" y="127"/>
      <point x="640" y="6"/>
      <point x="501" y="6" type="qcurve" smooth="yes"/>
      <point x="359" y="6"/>
      <point x="155" y="78"/>
      <point x="106" y="129" type="qcurve"/>
      <point x="106" y="105" type="line"/>
      <point x="147" y="60"/>
      <point x="351" y="-14"/>
    </contour>
    <contour>
      <point x="127" y="98" type="line"/>
      <point x="127" y="309" type="line"/>
      <point x="106" y="309" type="line"/>
      <point x="106" y="109" type="line"/>
    </contour>
    <contour>
      <point x="717" y="688" type="line"/>
      <point x="738" y="688" type="line"/>
      <point x="738" y="914" type="line"/>
      <point x="717" y="915" type="line"/>
    </contour>
  </outline>
</glyph>
<glyph name="t" format="2">
  <advance width="594"/>
  <unicode hex="0074"/>
  <anchor x="255" y="596.0" name="center"/>
  <outline>
    <contour>
      <point x="397" y="0" type="qcurve" smooth="yes"/>
      <point x="454" y="0"/>
      <point x="493" y="1"/>
      <point x="512" y="3" type="qcurve"/>
      <point x="512" y="20" type="line"/>
      <point x="399" y="20" type="line" smooth="yes"/>
      <point x="332" y="20"/>
      <point x="266" y="80"/>
      <point x="266" y="154" type="qcurve" smooth="yes"/>
      <point x="266" y="948" type="line"/>
      <point x="266" y="954" type="line"/>
      <point x="266" y="1186" type="line"/>
      <point x="245" y="1186" type="line"/>
      <point x="245" y="154" type="line" smooth="yes"/>
      <point x="245" y="68"/>
      <point x="324" y="0"/>
    </contour>
    <contour>
      <point x="0" y="940" type="line"/>
      <point x="254" y="940" type="line"/>
      <point x="258" y="940" type="line"/>
      <point x="548" y="940" type="line"/>
      <point x="548" y="960" type="line"/>
      <point x="258" y="960" type="line"/>
      <point x="254" y="960" type="line"/>
      <point x="0" y="960" type="line"/>
    </contour>
  </outline>
</glyph>
<glyph name="v" format="2">
  <advance width="1062"/>
  <unicode hex="0076"/>
  <outline>
    <contour>
      <point x="520" y="0" type="line"/>
      <point x="546" y="0" type="line"/>
      <point x="901" y="960" type="line"/>
      <point x="878" y="960" type="line"/>
      <point x="534" y="28" type="line"/>
      <point x="532" y="28" type="line"/>
      <point x="185" y="960" type="line"/>
      <point x="161" y="960" type="line"/>
    </contour>
    <contour>
      <point x="0" y="940" type="line"/>
      <point x="175" y="940" type="line"/>
      <point x="187" y="940" type="line"/>
      <point x="362" y="940" type="line"/>
      <point x="362" y="960" type="line"/>
      <point x="0" y="960" type="line"/>
    </contour>
    <contour>
      <point x="887" y="940" type="line"/>
      <point x="1062" y="940" type="line"/>
      <point x="1062" y="960" type="line"/>
      <point x="701" y="960" type="line"/>
      <point x="701" y="940" type="line"/>
      <point x="877" y="940" type="line"/>
    </contour>
  </outline>
</glyph>
<glyph name="w" format="2">
  <advance width="1312"/>
  <unicode hex="0077"/>
  <outline>
    <contour>
      <point x="390" y="0" type="line"/>
      <point x="417" y="0" type="line"/>
      <point x="649" y="926" type="line"/>
      <point x="651" y="926" type="line"/>
      <point x="888" y="0" type="line"/>
      <point x="915" y="0" type="line"/>
      <point x="1153" y="960" type="line"/>
      <point x="1131" y="960" type="line"/>
      <point x="902" y="27" type="line"/>
      <point x="900" y="27" type="line"/>
      <point x="662" y="960" type="line"/>
      <point x="638" y="960" type="line"/>
      <point x="405" y="27" type="line"/>
      <point x="402" y="27" type="line"/>
      <point x="182" y="960" type="line"/>
      <point x="159" y="960" type="line"/>
    </contour>
    <contour>
      <point x="0" y="940" type="line"/>
      <point x="170" y="940" type="line"/>
      <point x="183" y="940" type="line"/>
      <point x="382" y="940" type="line"/>
      <point x="382" y="960" type="line"/>
      <point x="0" y="960" type="line"/>
    </contour>
    <contour>
      <point x="1142" y="940" type="line"/>
      <point x="1312" y="940" type="line"/>
      <point x="1312" y="960" type="line"/>
      <point x="931" y="960" type="line"/>
      <point x="931" y="940" type="line"/>
      <point x="1129" y="940" type="line"/>
    </contour>
  </outline>
</glyph>
<glyph name="x" format="2">
  <advance width="1061"/>
  <unicode hex="0078"/>
  <outline>
    <contour>
      <point x="188" y="0" type="line"/>
      <point x="529" y="484" type="line"/>
      <point x="531" y="486" type="line"/>
      <point x="865" y="960" type="line"/>
      <point x="840" y="960" type="line"/>
      <point x="518" y="502" type="line"/>
      <point x="516" y="500" type="line"/>
      <point x="164" y="0" type="line"/>
    </contour>
    <contour>
      <point x="0" y="0" type="line"/>
      <point x="389" y="0" type="line"/>
      <point x="389" y="20" type="line"/>
      <point x="192" y="20" type="line"/>
      <point x="183" y="20" type="line"/>
      <point x="0" y="20" type="line"/>
    </contour>
    <contour>
      <point x="6" y="940" type="line"/>
      <point x="196" y="940" type="line"/>
      <point x="204" y="940" type="line"/>
      <point x="401" y="940" type="line"/>
      <point x="401" y="960" type="line"/>
      <point x="6" y="960" type="line"/>
    </contour>
    <contour>
      <point x="667" y="0" type="line"/>
      <point x="1061" y="0" type="line"/>
      <point x="1061" y="20" type="line"/>
      <point x="870" y="20" type="line"/>
      <point x="863" y="20" type="line"/>
      <point x="667" y="20" type="line"/>
    </contour>
    <contour>
      <point x="845" y="940" type="line"/>
      <point x="1027" y="940" type="line"/>
      <point x="1027" y="960" type="line"/>
      <point x="637" y="960" type="line"/>
      <point x="637" y="940" type="line"/>
      <point x="836" y="940" type="line"/>
    </contour>
    <contour>
      <point x="868" y="0" type="line"/>
      <point x="893" y="0" type="line"/>
      <point x="198" y="960" type="line"/>
      <point x="172" y="960" type="line"/>
    </contour>
  </outline>
</glyph>
<glyph name="y" format="2">
  <advance width="1033"/>
  <unicode hex="0079"/>
  <anchor x="575.0" y="960.0" name="top"/>
  <outline>
    <contour>
      <point x="127" y="-361" type="qcurve" smooth="yes"/>
      <point x="273" y="-361"/>
      <point x="450" y="-194"/>
      <point x="517" y="-24" type="qcurve" smooth="yes"/>
      <point x="876" y="960" type="line"/>
      <point x="853" y="960" type="line"/>
      <point x="513" y="21" type="line"/>
      <point x="511" y="21" type="line"/>
      <point x="181" y="960" type="line"/>
      <point x="157" y="960" type="line"/>
      <point x="497" y="0" type="line"/>
      <point x="505" y="0" type="line"/>
      <point x="438" y="-179"/>
      <point x="267" y="-341"/>
      <point x="138" y="-343" type="qcurve"/>
      <point x="112" y="-343" type="line"/>
      <point x="112" y="-347" type="line" smooth="yes"/>
      <point x="112" y="-355"/>
      <point x="121" y="-361"/>
    </contour>
    <contour>
      <point x="0" y="940" type="line"/>
      <point x="170" y="940" type="line"/>
      <point x="185" y="940" type="line"/>
      <point x="365" y="940" type="line"/>
      <point x="365" y="960" type="line"/>
      <point x="0" y="960" type="line"/>
    </contour>
    <contour>
      <point x="864" y="940" type="line"/>
      <point x="1033" y="940" type="line"/>
      <point x="1033" y="960" type="line"/>
      <point x="669" y="960" type="line"/>
      <point x="669" y="940" type="line"/>
      <point x="849" y="940" type="line"/>
    </contour>
    <contour>
      <point x="127" y="-361" type="qcurve" smooth="yes"/>
      <point x="146" y="-361"/>
      <point x="172" y="-337"/>
      <point x="172" y="-316" type="qcurve" smooth="yes"/>
      <point x="172" y="-297"/>
      <point x="147" y="-273"/>
      <point x="127" y="-273" type="qcurve" smooth="yes"/>
      <point x="106" y="-273"/>
      <point x="82" y="-297"/>
      <point x="82" y="-316" type="qcurve" smooth="yes"/>
      <point x="82" y="-337"/>
      <point x="107" y="-361"/>
    </contour>
  </outline>
</glyph>
<glyph name="z" format="2">
  <advance width="1052"/>
  <unicode hex="007A"/>
  <anchor x="578.0" y="960.0" name="top"/>
  <outline>
    <contour>
      <point x="150" y="642" type="line"/>
      <point x="171" y="642" type="line"/>
      <point x="171" y="960" type="line"/>
      <point x="150" y="960" type="line"/>
    </contour>
    <contour>
      <point x="160" y="941" type="line"/>
      <point x="909" y="941" type="line"/>
      <point x="923" y="941" type="line"/>
      <point x="931" y="941" type="line"/>
      <point x="931" y="960" type="line"/>
      <point x="160" y="960" type="line"/>
    </contour>
    <contour>
      <point x="94" y="0" type="line"/>
      <point x="947" y="0" type="line"/>
      <point x="947" y="19" type="line"/>
      <point x="115" y="19" type="line"/>
      <point x="101" y="19" type="line"/>
      <point x="94" y="19" type="line"/>
    </contour>
    <contour>
      <point x="113" y="8" type="line"/>
      <point x="931" y="941" type="line"/>
      <point x="912" y="952" type="line"/>
      <point x="94" y="19" type="line"/>
    </contour>
    <contour>
      <point x="937" y="0" type="line"/>
      <point x="958" y="0" type="line"/>
      <point x="958" y="318" type="line"/>
      <point x="937" y="318" type="line"/>
    </contour>
  </outline>
</glyph>
<glyph name="multiply" format="2">
  <advance width="1040"/>
  <unicode hex="00D7"/>
  <outline>
    <contour>
      <point x="252" y="310" type="line"/>
      <point x="889" y="947" type="line"/>
      <point x="787" y="1049" type="line"/>
      <point x="150" y="412" type="line"/>
    </contour>
    <contour>
      <point x="786" y="309" type="line"/>
      <point x="891" y="414" type="line"/>
      <point x="254" y="1051" type="line"/>
      <point x="149" y="946" type="line"/>
    </contour>
  </outline>
</glyph>
<glyph name="Thorn" format="2">
  <advance width="1066"/>
  <unicode hex="00DE"/>
  <unicode hex="00FE"/>
  <outline>
    <contour>
      <point x="352" y="226" type="line"/>
      <point x="484" y="226" type="line"/>
      <point x="702" y="226"/>
      <point x="989" y="482"/>
      <point x="989" y="694" type="qcurve"/>
      <point x="989" y="905"/>
      <point x="702" y="1161"/>
      <point x="484" y="1161" type="qcurve"/>
      <point x="354" y="1161" type="line"/>
      <point x="354" y="1006" type="line"/>
      <point x="476" y="1006" type="line"/>
      <point x="631" y="1006"/>
      <point x="822" y="856"/>
      <point x="822" y="693" type="qcurve"/>
      <point x="822" y="530"/>
      <point x="631" y="364"/>
      <point x="476" y="364" type="qcurve"/>
      <point x="352" y="364" type="line"/>
    </contour>
    <contour>
      <point x="220" y="0" type="line"/>
      <point x="383" y="0" type="line"/>
      <point x="383" y="1400" type="line"/>
      <point x="220" y="1400" type="line"/>
    </contour>
  </outline>
</glyph>
<glyph name="quoteright" format="2">
  <advance width="488"/>
  <unicode hex="2019"/>
  <outline>
    <contour>
      <point x="201" y="915" type="line"/>
      <point x="423" y="1143" type="line"/>
      <point x="311" y="1251" type="line"/>
      <point x="88" y="1022" type="line"/>
    </contour>
    <contour>
      <point x="264" y="1130" type="line"/>
      <point x="422" y="1281" type="line"/>
      <point x="264" y="1434" type="line"/>
      <point x="106" y="1281" type="line"/>
    </contour>
  </outline>
</glyph>
<glyph name="minus" format="2">
  <advance width="1040"/>
  <unicode hex="2212"/>
  <outline>
    <contour>
      <point x="61" y="603" type="line"/>
      <point x="980" y="603" type="line"/>
      <point x="980" y="758" type="line"/>
      <point x="61" y="758" type="line"/>
    </contour>
  </outline>
</glyph>
<glyph name="M.botleftdia" format="2">
  <advance width="1644"/>
  <outline>
    <contour>
      <point x="740" y="152" type="qcurve"/>
      <point x="700" y="152"/>
      <point x="700" y="152"/>
      <point x="687" y="181" type="qcurve"/>
      <point x="673" y="209"/>
      <point x="651" y="255"/>
      <point x="609" y="341" type="qcurve"/>
      <point x="569" y="424"/>
      <point x="554" y="455"/>
      <point x="541" y="484" type="qcurve"/>
      <point x="527" y="512"/>
      <point x="527" y="512"/>
      <point x="562" y="529" type="qcurve"/>
      <point x="598" y="546"/>
      <point x="598" y="546"/>
      <point x="611" y="517" type="qcurve"/>
      <point x="625" y="489"/>
      <point x="639" y="457"/>
      <point x="679" y="375" type="qcurve"/>
      <point x="719" y="288"/>
      <point x="732" y="261"/>
      <point x="757" y="205" type="qcurve"/>
      <point x="779" y="152"/>
      <point x="779" y="152"/>
    </contour>
    <contour>
      <point x="800" y="199" type="qcurve"/>
      <point x="779" y="152"/>
      <point x="779" y="152"/>
      <point x="757" y="205" type="qcurve"/>
      <point x="732" y="261"/>
      <point x="719" y="288"/>
      <point x="679" y="375" type="qcurve"/>
      <point x="639" y="457"/>
      <point x="625" y="489"/>
      <point x="611" y="517" type="qcurve"/>
      <point x="598" y="546"/>
      <point x="598" y="546"/>
      <point x="633" y="563" type="qcurve"/>
      <point x="668" y="580"/>
      <point x="668" y="580"/>
      <point x="682" y="551" type="qcurve"/>
      <point x="695" y="523"/>
      <point x="710" y="491"/>
      <point x="749" y="409" type="qcurve"/>
      <point x="775" y="351"/>
      <point x="799" y="296"/>
      <point x="811" y="268" type="qcurve"/>
      <point x="820" y="245"/>
      <point x="820" y="245"/>
    </contour>
  </outline>
</glyph>
<glyph name="M.leftdiagonal" format="2">
  <advance width="362"/>
  <outline>
    <contour>
      <point x="254" y="660" type="qcurve"/>
      <point x="219" y="644"/>
      <point x="219" y="644"/>
      <point x="203" y="678" type="qcurve"/>
      <point x="186" y="712"/>
      <point x="170" y="746"/>
      <point x="143" y="801" type="qcurve"/>
      <point x="131" y="826"/>
      <point x="114" y="861"/>
      <point x="98" y="896" type="qcurve"/>
      <point x="82" y="930"/>
      <point x="82" y="930"/>
      <point x="82" y="1015" type="qcurve"/>
      <point x="82" y="1110"/>
      <point x="82" y="1110"/>
      <point x="108" y="1055" type="qcurve"/>
      <point x="124" y="1020"/>
      <point x="143" y="983"/>
      <point x="191" y="883" type="qcurve"/>
      <point x="242" y="778"/>
      <point x="257" y="746"/>
      <point x="273" y="712" type="qcurve"/>
      <point x="290" y="677"/>
      <point x="290" y="677"/>
    </contour>
    <contour>
      <point x="325" y="693" type="qcurve"/>
      <point x="290" y="677"/>
      <point x="290" y="677"/>
      <point x="273" y="712" type="qcurve"/>
      <point x="257" y="746"/>
      <point x="241" y="780"/>
      <point x="191" y="883" type="qcurve"/>
      <point x="172" y="922"/>
      <point x="124" y="1020"/>
      <point x="108" y="1055" type="qcurve"/>
      <point x="82" y="1110"/>
      <point x="24" y="1239"/>
      <point x="7" y="1277" type="qcurve" smooth="yes"/>
      <point x="0" y="1293"/>
      <point x="0" y="1293"/>
      <point x="0" y="1334" type="qcurve"/>
      <point x="0" y="1368"/>
      <point x="0" y="1368"/>
      <point x="27" y="1368" type="qcurve"/>
      <point x="53" y="1368"/>
      <point x="53" y="1368"/>
      <point x="69" y="1334" type="qcurve"/>
      <point x="86" y="1299"/>
      <point x="214" y="1017"/>
      <point x="262" y="917" type="qcurve"/>
      <point x="312" y="812"/>
      <point x="328" y="780"/>
      <point x="343" y="746" type="qcurve"/>
      <point x="362" y="710"/>
      <point x="362" y="710"/>
    </contour>
  </outline>
</glyph>
<glyph name="M.rightdiagonal" format="2">
  <advance width="357"/>
  <outline>
    <contour>
      <point x="103" y="660" type="qcurve"/>
      <point x="67" y="677"/>
      <point x="67" y="677"/>
      <point x="84" y="712" type="qcurve"/>
      <point x="100" y="746"/>
      <point x="115" y="778"/>
      <point x="166" y="883" type="qcurve"/>
      <point x="214" y="983"/>
      <point x="233" y="1020"/>
      <point x="249" y="1055" type="qcurve"/>
      <point x="275" y="1110"/>
      <point x="275" y="1110"/>
      <point x="275" y="1015" type="qcurve"/>
      <point x="275" y="930"/>
      <point x="275" y="930"/>
      <point x="259" y="896" type="qcurve"/>
      <point x="243" y="861"/>
      <point x="222" y="827"/>
      <point x="210" y="802" type="qcurve"/>
      <point x="183" y="747"/>
      <point x="167" y="713"/>
      <point x="150" y="679" type="qcurve"/>
      <point x="134" y="645"/>
      <point x="134" y="645"/>
    </contour>
    <contour>
      <point x="32" y="693" type="qcurve"/>
      <point x="0" y="709"/>
      <point x="0" y="709"/>
      <point x="18" y="745" type="qcurve"/>
      <point x="34" y="779"/>
      <point x="50" y="811"/>
      <point x="100" y="916" type="qcurve"/>
      <point x="148" y="1016"/>
      <point x="271" y="1299"/>
      <point x="288" y="1334" type="qcurve"/>
      <point x="304" y="1368"/>
      <point x="304" y="1368"/>
      <point x="330" y="1368" type="qcurve"/>
      <point x="357" y="1368"/>
      <point x="357" y="1368"/>
      <point x="357" y="1334" type="qcurve"/>
      <point x="357" y="1292"/>
      <point x="357" y="1292"/>
      <point x="349" y="1274" type="qcurve"/>
      <point x="332" y="1236"/>
      <point x="275" y="1110"/>
      <point x="249" y="1055" type="qcurve"/>
      <point x="233" y="1020"/>
      <point x="185" y="922"/>
      <point x="166" y="883" type="qcurve"/>
      <point x="116" y="780"/>
      <point x="100" y="746"/>
      <point x="84" y="712" type="qcurve"/>
      <point x="67" y="677"/>
      <point x="67" y="677"/>
    </contour>
  </outline>
</glyph>
<glyph name="part1/2" format="2">
  <advance width="82"/>
  <outline>
    <contour>
      <point x="41" y="0" type="qcurve"/>
      <point x="0" y="0"/>
      <point x="0" y="0"/>
      <point x="0" y="38" type="qcurve"/>
      <point x="0" y="76"/>
      <point x="0" y="76"/>
      <point x="41" y="76" type="qcurve"/>
      <point x="82" y="76"/>
      <point x="82" y="76"/>
      <point x="82" y="38" type="qcurve"/>
      <point x="82" y="0"/>
      <point x="82" y="0"/>
    </contour>
    <contour>
      <point x="41" y="76" type="qcurve"/>
      <point x="0" y="76"/>
      <point x="0" y="76"/>
      <point x="0" y="114" type="qcurve"/>
      <point x="0" y="152"/>
      <point x="0" y="152"/>
      <point x="41" y="152" type="qcurve"/>
      <point x="82" y="152"/>
      <point x="82" y="152"/>
      <point x="82" y="114" type="qcurve"/>
      <point x="82" y="76"/>
      <point x="82" y="76"/>
    </contour>
  </outline>
</glyph>
<glyph name="part1/2a" format="2">
  <advance width="82"/>
  <outline>
    <contour>
      <point x="41" y="-21" type="qcurve"/>
      <point x="0" y="-25"/>
      <point x="0" y="-25"/>
      <point x="0" y="9" type="qcurve"/>
      <point x="0" y="47"/>
      <point x="0" y="47"/>
      <point x="41" y="51" type="qcurve"/>
      <point x="82" y="59"/>
      <point x="82" y="59"/>
      <point x="82" y="20" type="qcurve"/>
      <point x="82" y="-14"/>
      <point x="82" y="-14"/>
    </contour>
    <contour>
      <point x="41" y="51" type="qcurve"/>
      <point x="0" y="47"/>
      <point x="0" y="47"/>
      <point x="0" y="85" type="qcurve"/>
      <point x="0" y="123"/>
      <point x="0" y="123"/>
      <point x="40" y="127" type="qcurve"/>
      <point x="82" y="133"/>
      <point x="82" y="133"/>
      <point x="82" y="96" type="qcurve"/>
      <point x="82" y="59"/>
      <point x="82" y="59"/>
    </contour>
  </outline>
</glyph>
<glyph name="part1b" format="2">
  <advance width="164"/>
  <outline>
    <contour>
      <point x="39" y="-11" type="qcurve"/>
      <point x="0" y="0"/>
      <point x="0" y="0"/>
      <point x="0" y="39" type="qcurve"/>
      <point x="0" y="79"/>
      <point x="0" y="79"/>
      <point x="39" y="70" type="qcurve"/>
      <point x="82" y="55"/>
      <point x="82" y="55"/>
      <point x="82" y="11" type="qcurve"/>
      <point x="82" y="-29"/>
      <point x="82" y="-29"/>
    </contour>
    <contour>
      <point x="39" y="70" type="qcurve"/>
      <point x="0" y="79"/>
      <point x="0" y="79"/>
      <point x="0" y="118" type="qcurve"/>
      <point x="0" y="157"/>
      <point x="0" y="157"/>
      <point x="39" y="148" type="qcurve"/>
      <point x="82" y="135"/>
      <point x="82" y="135"/>
      <point x="82" y="94" type="qcurve"/>
      <point x="82" y="55"/>
      <point x="82" y="55"/>
    </contour>
    <contour>
      <point x="123" y="-50" type="qcurve"/>
      <point x="82" y="-29"/>
      <point x="82" y="-29"/>
      <point x="82" y="11" type="qcurve"/>
      <point x="82" y="55"/>
      <point x="82" y="55"/>
      <point x="123" y="37" type="qcurve"/>
      <point x="164" y="14"/>
      <point x="164" y="14"/>
      <point x="164" y="-31" type="qcurve"/>
      <point x="164" y="-74"/>
      <point x="164" y="-74"/>
    </contour>
    <contour>
      <point x="123" y="37" type="qcurve"/>
      <point x="82" y="55"/>
      <point x="82" y="55"/>
      <point x="82" y="94" type="qcurve"/>
      <point x="82" y="135"/>
      <point x="82" y="135"/>
      <point x="123" y="119" type="qcurve"/>
      <point x="164" y="101"/>
      <point x="164" y="101"/>
      <point x="164" y="57" type="qcurve"/>
      <point x="164" y="14"/>
      <point x="164" y="14"/>
    </contour>
  </outline>
</glyph>
<glyph name="part1c" format="2">
  <advance width="164"/>
  <outline>
    <contour>
      <point x="37" y="0" type="qcurve"/>
      <point x="-5" y="0"/>
      <point x="-5" y="0"/>
      <point x="-1" y="38" type="qcurve"/>
      <point x="0" y="76"/>
      <point x="0" y="76"/>
      <point x="40" y="76" type="qcurve"/>
      <point x="82" y="76"/>
      <point x="82" y="76"/>
      <point x="81" y="38" type="qcurve"/>
      <point x="77" y="0"/>
      <point x="77" y="0"/>
    </contour>
    <contour>
      <point x="40" y="76" type="qcurve"/>
      <point x="0" y="76"/>
      <point x="0" y="76"/>
      <point x="-1" y="114" type="qcurve"/>
      <point x="-6" y="152"/>
      <point x="-6" y="152"/>
      <point x="35" y="152" type="qcurve"/>
      <point x="78" y="152"/>
      <point x="78" y="152"/>
      <point x="81" y="114" type="qcurve"/>
      <point x="82" y="76"/>
      <point x="82" y="76"/>
    </contour>
    <contour>
      <point x="119" y="0" type="qcurve"/>
      <point x="77" y="0"/>
      <point x="77" y="0"/>
      <point x="81" y="38" type="qcurve"/>
      <point x="82" y="76"/>
      <point x="82" y="76"/>
      <point x="122" y="76" type="qcurve"/>
      <point x="164" y="76"/>
      <point x="164" y="76"/>
      <point x="163" y="38" type="qcurve"/>
      <point x="160" y="0"/>
      <point x="160" y="0"/>
    </contour>
    <contour>
      <point x="122" y="76" type="qcurve"/>
      <point x="82" y="76"/>
      <point x="82" y="76"/>
      <point x="81" y="114" type="qcurve"/>
      <point x="78" y="152"/>
      <point x="78" y="152"/>
      <point x="119" y="152" type="qcurve"/>
      <point x="159" y="152"/>
      <point x="159" y="152"/>
      <point x="163" y="114" type="qcurve"/>
      <point x="164" y="76"/>
      <point x="164" y="76"/>
    </contour>
  </outline>
</glyph>
<glyph name="part1e" format="2">
  <advance width="152"/>
  <outline>
    <contour>
      <point x="115" y="131" type="qcurve"/>
      <point x="152" y="126"/>
      <point x="152" y="126"/>
      <point x="152" y="90" type="qcurve"/>
      <point x="152" y="52"/>
      <point x="152" y="52"/>
      <point x="116" y="55" type="qcurve"/>
      <point x="76" y="64"/>
      <point x="76" y="64"/>
      <point x="76" y="105" type="qcurve"/>
      <point x="76" y="142"/>
      <point x="76" y="142"/>
    </contour>
    <contour>
      <point x="116" y="55" type="qcurve"/>
      <point x="152" y="52"/>
      <point x="152" y="52"/>
      <point x="152" y="17" type="qcurve"/>
      <point x="152" y="-21"/>
      <point x="152" y="-21"/>
      <point x="116" y="-17" type="qcurve"/>
      <point x="76" y="-11"/>
      <point x="76" y="-11"/>
      <point x="76" y="27" type="qcurve"/>
      <point x="76" y="64"/>
      <point x="76" y="64"/>
    </contour>
    <contour>
      <point x="38" y="156" type="qcurve"/>
      <point x="76" y="142"/>
      <point x="76" y="142"/>
      <point x="76" y="105" type="qcurve"/>
      <point x="76" y="64"/>
      <point x="76" y="64"/>
      <point x="38" y="75" type="qcurve"/>
      <point x="0" y="92"/>
      <point x="0" y="92"/>
      <point x="0" y="133" type="qcurve"/>
      <point x="0" y="173"/>
      <point x="0" y="173"/>
    </contour>
    <contour>
      <point x="38" y="75" type="qcurve"/>
      <point x="76" y="64"/>
      <point x="76" y="64"/>
      <point x="76" y="27" type="qcurve"/>
      <point x="76" y="-11"/>
      <point x="76" y="-11"/>
      <point x="38" y="-1" type="qcurve"/>
      <point x="0" y="11"/>
      <point x="0" y="11"/>
      <point x="0" y="51" type="qcurve"/>
      <point x="0" y="92"/>
      <point x="0" y="92"/>
    </contour>
  </outline>
</glyph>
<glyph name="part1i" format="2">
  <advance width="1064"/>
  <outline>
    <contour>
      <point x="275" y="1126" type="qcurve"/>
      <point x="319" y="1126"/>
      <point x="319" y="1126"/>
      <point x="308" y="1088" type="qcurve"/>
      <point x="304" y="1050"/>
      <point x="304" y="1050"/>
      <point x="266" y="1050" type="qcurve"/>
      <point x="225" y="1050"/>
      <point x="225" y="1050"/>
      <point x="226" y="1088" type="qcurve"/>
      <point x="234" y="1126"/>
      <point x="234" y="1126"/>
    </contour>
    <contour>
      <point x="266" y="1050" type="qcurve"/>
      <point x="304" y="1050"/>
      <point x="304" y="1050"/>
      <point x="306" y="1012" type="qcurve"/>
      <point x="314" y="974"/>
      <point x="314" y="974"/>
      <point x="274" y="974" type="qcurve"/>
      <point x="233" y="974"/>
      <point x="233" y="974"/>
      <point x="227" y="1012" type="qcurve"/>
      <point x="225" y="1050"/>
      <point x="225" y="1050"/>
    </contour>
    <contour>
      <point x="191" y="1126" type="qcurve"/>
      <point x="234" y="1126"/>
      <point x="234" y="1126"/>
      <point x="226" y="1088" type="qcurve"/>
      <point x="225" y="1050"/>
      <point x="225" y="1050"/>
      <point x="187" y="1050" type="qcurve"/>
      <point x="146" y="1050"/>
      <point x="146" y="1050"/>
      <point x="146" y="1088" type="qcurve"/>
      <point x="149" y="1126"/>
      <point x="149" y="1126"/>
    </contour>
    <contour>
      <point x="187" y="1050" type="qcurve"/>
      <point x="225" y="1050"/>
      <point x="225" y="1050"/>
      <point x="227" y="1012" type="qcurve"/>
      <point x="233" y="974"/>
      <point x="233" y="974"/>
      <point x="192" y="974" type="qcurve"/>
      <point x="153" y="974"/>
      <point x="153" y="974"/>
      <point x="147" y="1012" type="qcurve"/>
      <point x="146" y="1050"/>
      <point x="146" y="1050"/>
    </contour>
  </outline>
</glyph>
<glyph name="part1j" format="2">
  <advance width="1064"/>
  <outline>
    <contour>
      <point x="789" y="1126" type="qcurve"/>
      <point x="830" y="1126"/>
      <point x="830" y="1126"/>
      <point x="838" y="1088" type="qcurve"/>
      <point x="839" y="1050"/>
      <point x="839" y="1050"/>
      <point x="798" y="1050" type="qcurve"/>
      <point x="760" y="1050"/>
      <point x="760" y="1050"/>
      <point x="756" y="1088" type="qcurve"/>
      <point x="745" y="1126"/>
      <point x="745" y="1126"/>
    </contour>
    <contour>
      <point x="798" y="1050" type="qcurve"/>
      <point x="839" y="1050"/>
      <point x="839" y="1050"/>
      <point x="836" y="1012" type="qcurve"/>
      <point x="829" y="974"/>
      <point x="829" y="974"/>
      <point x="790" y="974" type="qcurve"/>
      <point x="750" y="974"/>
      <point x="750" y="974"/>
      <point x="758" y="1012" type="qcurve"/>
      <point x="760" y="1050"/>
      <point x="760" y="1050"/>
    </contour>
    <contour>
      <point x="873" y="1126" type="qcurve"/>
      <point x="915" y="1126"/>
      <point x="915" y="1126"/>
      <point x="918" y="1088" type="qcurve"/>
      <point x="918" y="1050"/>
      <point x="918" y="1050"/>
      <point x="877" y="1050" type="qcurve"/>
      <point x="839" y="1050"/>
      <point x="839" y="1050"/>
      <point x="838" y="1088" type="qcurve"/>
      <point x="830" y="1126"/>
      <point x="830" y="1126"/>
    </contour>
    <contour>
      <point x="877" y="1050" type="qcurve"/>
      <point x="918" y="1050"/>
      <point x="918" y="1050"/>
      <point x="917" y="1012" type="qcurve"/>
      <point x="911" y="974"/>
      <point x="911" y="974"/>
      <point x="872" y="974" type="qcurve"/>
      <point x="829" y="974"/>
      <point x="829" y="974"/>
      <point x="836" y="1012" type="qcurve"/>
      <point x="839" y="1050"/>
      <point x="839" y="1050"/>
    </contour>
  </outline>
</glyph>
<glyph name="part1k" format="2">
  <advance width="1064"/>
  <outline>
    <contour>
      <point x="604" y="1281" type="qcurve"/>
      <point x="604" y="1239"/>
      <point x="604" y="1239"/>
      <point x="563" y="1247" type="qcurve"/>
      <point x="523" y="1248"/>
      <point x="523" y="1248"/>
      <point x="523" y="1287" type="qcurve"/>
      <point x="523" y="1328"/>
      <point x="523" y="1328"/>
      <point x="563" y="1327" type="qcurve"/>
      <point x="604" y="1321"/>
      <point x="604" y="1321"/>
    </contour>
    <contour>
      <point x="523" y="1287" type="qcurve"/>
      <point x="523" y="1248"/>
      <point x="523" y="1248"/>
      <point x="482" y="1245" type="qcurve"/>
      <point x="441" y="1235"/>
      <point x="441" y="1235"/>
      <point x="441" y="1277" type="qcurve"/>
      <point x="441" y="1318"/>
      <point x="441" y="1318"/>
      <point x="482" y="1325" type="qcurve"/>
      <point x="523" y="1328"/>
      <point x="523" y="1328"/>
    </contour>
    <contour>
      <point x="604" y="1362" type="qcurve"/>
      <point x="604" y="1321"/>
      <point x="604" y="1321"/>
      <point x="563" y="1327" type="qcurve"/>
      <point x="523" y="1328"/>
      <point x="523" y="1328"/>
      <point x="523" y="1367" type="qcurve"/>
      <point x="523" y="1407"/>
      <point x="523" y="1407"/>
      <point x="563" y="1406" type="qcurve"/>
      <point x="604" y="1402"/>
      <point x="604" y="1402"/>
    </contour>
    <contour>
      <point x="523" y="1367" type="qcurve"/>
      <point x="523" y="1328"/>
      <point x="523" y="1328"/>
      <point x="482" y="1325" type="qcurve"/>
      <point x="441" y="1318"/>
      <point x="441" y="1318"/>
      <point x="441" y="1360" type="qcurve"/>
      <point x="441" y="1400"/>
      <point x="441" y="1400"/>
      <point x="482" y="1405" type="qcurve"/>
      <point x="523" y="1407"/>
      <point x="523" y="1407"/>
    </contour>
  </outline>
</glyph>
<glyph name="part1zl" format="2">
  <advance width="1064"/>
  <outline>
    <contour>
      <point x="275" y="974" type="qcurve"/>
      <point x="314" y="974"/>
      <point x="314" y="974"/>
      <point x="322" y="941" type="qcurve"/>
      <point x="328" y="920"/>
      <point x="351" y="885"/>
      <point x="362" y="877" type="qcurve"/>
      <point x="379" y="866"/>
      <point x="379" y="866"/>
      <point x="379" y="833" type="qcurve"/>
      <point x="379" y="789"/>
      <point x="379" y="789"/>
      <point x="341" y="807" type="qcurve"/>
      <point x="301" y="829"/>
      <point x="245" y="904"/>
      <point x="239" y="939" type="qcurve"/>
      <point x="233" y="974"/>
      <point x="233" y="974"/>
    </contour>
    <contour>
      <point x="195" y="974" type="qcurve"/>
      <point x="233" y="974"/>
      <point x="233" y="974"/>
      <point x="239" y="939" type="qcurve"/>
      <point x="245" y="904"/>
      <point x="301" y="829"/>
      <point x="341" y="807" type="qcurve"/>
      <point x="379" y="789"/>
      <point x="379" y="789"/>
      <point x="338" y="772" type="qcurve"/>
      <point x="301" y="757"/>
      <point x="301" y="757"/>
      <point x="270" y="773" type="qcurve"/>
      <point x="222" y="803"/>
      <point x="171" y="887"/>
      <point x="159" y="937" type="qcurve"/>
      <point x="153" y="974"/>
      <point x="153" y="974"/>
    </contour>
  </outline>
</glyph>
<glyph name="part1zm" format="2">
  <advance width="1064"/>
  <outline>
    <contour>
      <point x="848" y="476" type="qcurve"/>
      <point x="807" y="476"/>
      <point x="807" y="476"/>
      <point x="801" y="506" type="qcurve"/>
      <point x="791" y="543"/>
      <point x="746" y="607"/>
      <point x="711" y="634" type="qcurve"/>
      <point x="687" y="650"/>
      <point x="687" y="650"/>
      <point x="687" y="688" type="qcurve"/>
      <point x="687" y="728"/>
      <point x="687" y="728"/>
      <point x="722" y="711" type="qcurve"/>
      <point x="780" y="683"/>
      <point x="867" y="587"/>
      <point x="886" y="510" type="qcurve"/>
      <point x="892" y="476"/>
      <point x="892" y="476"/>
    </contour>
    <contour>
      <point x="933" y="476" type="qcurve"/>
      <point x="892" y="476"/>
      <point x="892" y="476"/>
      <point x="886" y="510" type="qcurve"/>
      <point x="867" y="587"/>
      <point x="780" y="683"/>
      <point x="722" y="711" type="qcurve"/>
      <point x="687" y="728"/>
      <point x="687" y="728"/>
      <point x="730" y="745" type="qcurve"/>
      <point x="765" y="760"/>
      <point x="765" y="760"/>
      <point x="782" y="750" type="qcurve"/>
      <point x="847" y="721"/>
      <point x="940" y="626"/>
      <point x="968" y="514" type="qcurve"/>
      <point x="973" y="476"/>
      <point x="973" y="476"/>
    </contour>
  </outline>
</glyph>
<glyph name="part2b" format="2">
  <advance width="164"/>
  <outline>
    <contour>
      <point x="123" y="0" type="qcurve"/>
      <point x="82" y="0"/>
      <point x="82" y="0"/>
      <point x="82" y="46" type="qcurve"/>
      <point x="82" y="93"/>
      <point x="82" y="136"/>
      <point x="82" y="279" type="qcurve"/>
      <point x="82" y="413"/>
      <point x="82" y="464"/>
      <point x="82" y="511" type="qcurve"/>
      <point x="82" y="557"/>
      <point x="82" y="557"/>
      <point x="123" y="539" type="qcurve"/>
      <point x="164" y="520"/>
      <point x="164" y="520"/>
      <point x="164" y="474" type="qcurve"/>
      <point x="164" y="427"/>
      <point x="164" y="414"/>
      <point x="164" y="279" type="qcurve"/>
      <point x="164" y="138"/>
      <point x="164" y="93"/>
      <point x="164" y="46" type="qcurve"/>
      <point x="164" y="0"/>
      <point x="164" y="0"/>
    </contour>
    <contour>
      <point x="41" y="0" type="qcurve"/>
      <point x="0" y="0"/>
      <point x="0" y="0"/>
      <point x="0" y="46" type="qcurve"/>
      <point x="0" y="93"/>
      <point x="0" y="136"/>
      <point x="0" y="279" type="qcurve"/>
      <point x="0" y="413"/>
      <point x="0" y="388"/>
      <point x="0" y="435" type="qcurve"/>
      <point x="0" y="481"/>
      <point x="0" y="481"/>
      <point x="41" y="519" type="qcurve"/>
      <point x="82" y="557"/>
      <point x="82" y="557"/>
      <point x="82" y="511" type="qcurve"/>
      <point x="82" y="464"/>
      <point x="82" y="414"/>
      <point x="82" y="279" type="qcurve"/>
      <point x="82" y="138"/>
      <point x="82" y="93"/>
      <point x="82" y="46" type="qcurve"/>
      <point x="82" y="0"/>
      <point x="82" y="0"/>
    </contour>
  </outline>
</glyph>
<glyph name="part2c" format="2">
  <advance width="164"/>
  <outline>
    <contour>
      <point x="41" y="363" type="qcurve"/>
      <point x="82" y="363"/>
      <point x="82" y="363"/>
      <point x="82" y="335" type="qcurve"/>
      <point x="82" y="307"/>
      <point x="82" y="281"/>
      <point x="82" y="195" type="qcurve"/>
      <point x="82" y="114"/>
      <point x="82" y="83"/>
      <point x="82" y="55" type="qcurve"/>
      <point x="82" y="27"/>
      <point x="82" y="27"/>
      <point x="41" y="11" type="qcurve"/>
      <point x="0" y="0"/>
      <point x="0" y="0"/>
      <point x="0" y="77" type="qcurve"/>
      <point x="0" y="106"/>
      <point x="0" y="113"/>
      <point x="0" y="195" type="qcurve"/>
      <point x="0" y="280"/>
      <point x="0" y="307"/>
      <point x="0" y="335" type="qcurve"/>
      <point x="0" y="363"/>
      <point x="0" y="363"/>
    </contour>
    <contour>
      <point x="123" y="363" type="qcurve"/>
      <point x="164" y="363"/>
      <point x="164" y="363"/>
      <point x="164" y="335" type="qcurve"/>
      <point x="164" y="307"/>
      <point x="164" y="281"/>
      <point x="164" y="195" type="qcurve"/>
      <point x="164" y="114"/>
      <point x="164" y="129"/>
      <point x="164" y="101" type="qcurve"/>
      <point x="164" y="69"/>
      <point x="164" y="69"/>
      <point x="124" y="47" type="qcurve"/>
      <point x="82" y="27"/>
      <point x="82" y="27"/>
      <point x="82" y="55" type="qcurve"/>
      <point x="82" y="83"/>
      <point x="82" y="113"/>
      <point x="82" y="195" type="qcurve"/>
      <point x="82" y="280"/>
      <point x="82" y="307"/>
      <point x="82" y="335" type="qcurve"/>
      <point x="82" y="363"/>
      <point x="82" y="363"/>
    </contour>
  </outline>
</glyph>
<glyph name="part2d" format="2">
  <advance width="164"/>
  <outline>
    <contour>
      <point x="41" y="-234" type="qcurve"/>
      <point x="0" y="-234"/>
      <point x="0" y="-234"/>
      <point x="0" y="-196" type="qcurve"/>
      <point x="0" y="-168"/>
      <point x="0" y="-145"/>
      <point x="0" y="-123" type="qcurve" smooth="yes"/>
      <point x="0" y="-101"/>
      <point x="0" y="-75"/>
      <point x="0" y="-45" type="qcurve"/>
      <point x="0" y="3"/>
      <point x="0" y="3"/>
      <point x="41" y="1" type="qcurve"/>
      <point x="82" y="0"/>
      <point x="82" y="0"/>
      <point x="82" y="-45" type="qcurve"/>
      <point x="82" y="-75"/>
      <point x="82" y="-99"/>
      <point x="82" y="-123" type="qcurve"/>
      <point x="82" y="-144"/>
      <point x="82" y="-168"/>
      <point x="82" y="-196" type="qcurve"/>
      <point x="82" y="-234"/>
      <point x="82" y="-234"/>
    </contour>
    <contour>
      <point x="123" y="-234" type="qcurve"/>
      <point x="82" y="-234"/>
      <point x="82" y="-234"/>
      <point x="82" y="-196" type="qcurve"/>
      <point x="82" y="-168"/>
      <point x="82" y="-142"/>
      <point x="82" y="-123" type="qcurve" smooth="yes"/>
      <point x="82" y="-99"/>
      <point x="82" y="-75"/>
      <point x="82" y="-45" type="qcurve"/>
      <point x="82" y="0"/>
      <point x="82" y="0"/>
      <point x="123" y="1" type="qcurve"/>
      <point x="164" y="3"/>
      <point x="164" y="3"/>
      <point x="164" y="-45" type="qcurve"/>
      <point x="164" y="-75"/>
      <point x="164" y="-102"/>
      <point x="164" y="-123" type="qcurve" smooth="yes"/>
      <point x="164" y="-144"/>
      <point x="164" y="-168"/>
      <point x="164" y="-196" type="qcurve"/>
      <point x="164" y="-234"/>
      <point x="164" y="-234"/>
    </contour>
  </outline>
</glyph>
<glyph name="part2f" format="2">
  <advance width="164"/>
  <outline>
    <contour>
      <point x="123" y="759" type="qcurve"/>
      <point x="82" y="759"/>
      <point x="82" y="759"/>
      <point x="82" y="805" type="qcurve"/>
      <point x="82" y="852"/>
      <point x="82" y="897"/>
      <point x="82" y="1038" type="qcurve"/>
      <point x="82" y="1172"/>
      <point x="82" y="1199"/>
      <point x="82" y="1246" type="qcurve"/>
      <point x="82" y="1292"/>
      <point x="82" y="1292"/>
      <point x="123" y="1292" type="qcurve"/>
      <point x="164" y="1292"/>
      <point x="164" y="1292"/>
      <point x="164" y="1246" type="qcurve"/>
      <point x="164" y="1199"/>
      <point x="164" y="1144"/>
      <point x="164" y="1038" type="qcurve"/>
      <point x="164" y="897"/>
      <point x="164" y="852"/>
      <point x="164" y="805" type="qcurve"/>
      <point x="164" y="759"/>
      <point x="164" y="759"/>
    </contour>
    <contour>
      <point x="41" y="759" type="qcurve"/>
      <point x="0" y="759"/>
      <point x="0" y="759"/>
      <point x="0" y="805" type="qcurve"/>
      <point x="0" y="852"/>
      <point x="0" y="895"/>
      <point x="0" y="1038" type="qcurve"/>
      <point x="0" y="1048"/>
      <point x="0" y="1057"/>
      <point x="0" y="1065" type="qcurve"/>
      <point x="0" y="1111"/>
      <point x="0" y="1111"/>
      <point x="41" y="1201" type="qcurve"/>
      <point x="82" y="1292"/>
      <point x="82" y="1292"/>
      <point x="82" y="1246" type="qcurve"/>
      <point x="82" y="1199"/>
      <point x="82" y="1152"/>
      <point x="82" y="1038" type="qcurve"/>
      <point x="82" y="897"/>
      <point x="82" y="852"/>
      <point x="82" y="805" type="qcurve"/>
      <point x="82" y="759"/>
      <point x="82" y="759"/>
    </contour>
  </outline>
</glyph>
<glyph name="part2g" format="2">
  <advance width="1516"/>
  <outline>
    <contour>
      <point x="205" y="759" type="qcurve"/>
      <point x="164" y="759"/>
      <point x="164" y="759"/>
      <point x="164" y="805" type="qcurve"/>
      <point x="164" y="852"/>
      <point x="164" y="897"/>
      <point x="164" y="1038" type="qcurve"/>
      <point x="164" y="1144"/>
      <point x="164" y="1199"/>
      <point x="164" y="1246" type="qcurve"/>
      <point x="164" y="1292"/>
      <point x="164" y="1292"/>
      <point x="205" y="1292" type="qcurve"/>
      <point x="246" y="1292"/>
      <point x="246" y="1292"/>
      <point x="246" y="1246" type="qcurve"/>
      <point x="246" y="1199"/>
      <point x="246" y="1172"/>
      <point x="246" y="1038" type="qcurve"/>
      <point x="246" y="897"/>
      <point x="246" y="852"/>
      <point x="246" y="805" type="qcurve"/>
      <point x="246" y="759"/>
      <point x="246" y="759"/>
    </contour>
    <contour>
      <point x="287" y="759" type="qcurve"/>
      <point x="246" y="759"/>
      <point x="246" y="759"/>
      <point x="246" y="805" type="qcurve"/>
      <point x="246" y="852"/>
      <point x="246" y="897"/>
      <point x="246" y="1038" type="qcurve"/>
      <point x="246" y="1152"/>
      <point x="246" y="1199"/>
      <point x="246" y="1246" type="qcurve"/>
      <point x="246" y="1292"/>
      <point x="246" y="1292"/>
      <point x="289" y="1242" type="qcurve"/>
      <point x="328" y="1191"/>
      <point x="328" y="1191"/>
      <point x="328" y="1120" type="qcurve"/>
      <point x="328" y="1057"/>
      <point x="328" y="1018"/>
      <point x="328" y="979" type="qcurve"/>
      <point x="328" y="895"/>
      <point x="328" y="852"/>
      <point x="328" y="805" type="qcurve"/>
      <point x="328" y="759"/>
      <point x="328" y="759"/>
    </contour>
  </outline>
</glyph>
<glyph name="part2h" format="2">
  <advance width="1516"/>
  <outline>
    <contour>
      <point x="246" y="1328" type="qcurve"/>
      <point x="246" y="1368"/>
      <point x="246" y="1368"/>
      <point x="254" y="1368" type="qcurve" smooth="yes"/>
      <point x="266" y="1368"/>
      <point x="266" y="1368"/>
      <point x="321" y="1305" type="qcurve" smooth="yes"/>
      <point x="363" y="1257"/>
      <point x="547" y="1054"/>
      <point x="623" y="967" type="qcurve"/>
      <point x="695" y="883"/>
      <point x="722" y="852"/>
      <point x="747" y="823" type="qcurve"/>
      <point x="772" y="794"/>
      <point x="772" y="794"/>
      <point x="741" y="767" type="qcurve"/>
      <point x="710" y="741"/>
      <point x="710" y="741"/>
      <point x="685" y="769" type="qcurve"/>
      <point x="660" y="798"/>
      <point x="633" y="830"/>
      <point x="561" y="913" type="qcurve"/>
      <point x="484" y="1001"/>
      <point x="411" y="1087"/>
      <point x="385" y="1116" type="qcurve"/>
      <point x="246" y="1292"/>
      <point x="246" y="1292"/>
    </contour>
    <contour>
      <point x="328" y="1117" type="qcurve"/>
      <point x="328" y="1189"/>
      <point x="328" y="1189"/>
      <point x="385" y="1116" type="qcurve"/>
      <point x="411" y="1087"/>
      <point x="484" y="1001"/>
      <point x="561" y="913" type="qcurve"/>
      <point x="633" y="830"/>
      <point x="660" y="798"/>
      <point x="685" y="769" type="qcurve"/>
      <point x="710" y="741"/>
      <point x="710" y="741"/>
      <point x="679" y="714" type="qcurve"/>
      <point x="648" y="687"/>
      <point x="648" y="687"/>
      <point x="623" y="716" type="qcurve"/>
      <point x="598" y="744"/>
      <point x="571" y="776"/>
      <point x="499" y="859" type="qcurve"/>
      <point x="422" y="948"/>
      <point x="399" y="974"/>
      <point x="374" y="1003" type="qcurve"/>
      <point x="328" y="1056"/>
      <point x="328" y="1056"/>
    </contour>
  </outline>
</glyph>
<glyph name="part2i" format="2">
  <advance width="818"/>
  <outline>
    <contour>
      <point x="90" y="152" type="qcurve"/>
      <point x="50" y="152"/>
      <point x="50" y="152"/>
      <point x="81" y="212" type="qcurve"/>
      <point x="119" y="290"/>
      <point x="153" y="352"/>
      <point x="208" y="453" type="qcurve"/>
      <point x="261" y="551"/>
      <point x="281" y="588"/>
      <point x="300" y="621" type="qcurve"/>
      <point x="318" y="654"/>
      <point x="318" y="654"/>
      <point x="350" y="636" type="qcurve"/>
      <point x="383" y="619"/>
      <point x="383" y="619"/>
      <point x="365" y="585" type="qcurve"/>
      <point x="347" y="552"/>
      <point x="325" y="514"/>
      <point x="273" y="418" type="qcurve"/>
      <point x="217" y="315"/>
      <point x="184" y="254"/>
      <point x="155" y="199" type="qcurve"/>
      <point x="131" y="152"/>
      <point x="131" y="152"/>
    </contour>
    <contour>
      <point x="172" y="152" type="qcurve"/>
      <point x="131" y="152"/>
      <point x="131" y="152"/>
      <point x="155" y="199" type="qcurve"/>
      <point x="184" y="254"/>
      <point x="217" y="315"/>
      <point x="273" y="418" type="qcurve"/>
      <point x="325" y="514"/>
      <point x="347" y="552"/>
      <point x="365" y="585" type="qcurve"/>
      <point x="383" y="619"/>
      <point x="383" y="619"/>
      <point x="415" y="601" type="qcurve"/>
      <point x="448" y="583"/>
      <point x="448" y="583"/>
      <point x="430" y="550" type="qcurve"/>
      <point x="412" y="517"/>
      <point x="390" y="479"/>
      <point x="338" y="382" type="qcurve"/>
      <point x="282" y="280"/>
      <point x="249" y="219"/>
      <point x="231" y="186" type="qcurve"/>
      <point x="213" y="152"/>
      <point x="213" y="152"/>
    </contour>
  </outline>
</glyph>
<glyph name="part2k" format="2">
  <advance width="1139"/>
  <outline>
    <contour>
      <point x="659" y="642" type="qcurve"/>
      <point x="617" y="642"/>
      <point x="617" y="642"/>
      <point x="754" y="859" type="qcurve"/>
      <point x="774" y="891"/>
      <point x="794" y="922"/>
      <point x="855" y="1019" type="qcurve"/>
      <point x="914" y="1112"/>
      <point x="937" y="1148"/>
      <point x="957" y="1180" type="qcurve"/>
      <point x="977" y="1212"/>
      <point x="977" y="1212"/>
      <point x="1010" y="1191" type="qcurve"/>
      <point x="1043" y="1170"/>
      <point x="1043" y="1170"/>
      <point x="1022" y="1138" type="qcurve"/>
      <point x="1002" y="1106"/>
      <point x="980" y="1072"/>
      <point x="920" y="978" type="qcurve"/>
      <point x="859" y="881"/>
      <point x="839" y="850"/>
      <point x="819" y="817" type="qcurve"/>
      <point x="702" y="642"/>
      <point x="702" y="642"/>
    </contour>
    <contour>
      <point x="594" y="678" type="qcurve"/>
      <point x="572" y="714"/>
      <point x="572" y="714"/>
      <point x="690" y="899" type="qcurve"/>
      <point x="729" y="961"/>
      <point x="729" y="961"/>
      <point x="790" y="1061" type="qcurve"/>
      <point x="849" y="1153"/>
      <point x="872" y="1189"/>
      <point x="892" y="1221" type="qcurve"/>
      <point x="912" y="1253"/>
      <point x="912" y="1253"/>
      <point x="945" y="1232" type="qcurve"/>
      <point x="977" y="1212"/>
      <point x="977" y="1212"/>
      <point x="957" y="1180" type="qcurve"/>
      <point x="937" y="1148"/>
      <point x="915" y="1113"/>
      <point x="855" y="1019" type="qcurve"/>
      <point x="794" y="922"/>
      <point x="774" y="891"/>
      <point x="754" y="859" type="qcurve"/>
      <point x="617" y="642"/>
      <point x="617" y="642"/>
    </contour>
  </outline>
</glyph>
<glyph name="part2l" format="2">
  <advance width="449"/>
  <outline>
    <contour>
      <point x="93.0" y="1239" type="qcurve"/>
      <point x="124.0" y="1263"/>
      <point x="124.0" y="1263"/>
      <point x="152.0" y="1226" type="qcurve"/>
      <point x="180.0" y="1189"/>
      <point x="207.0" y="1153"/>
      <point x="293.0" y="1041" type="qcurve"/>
      <point x="357.0" y="956"/>
      <point x="384.0" y="922"/>
      <point x="412.0" y="884" type="qcurve"/>
      <point x="449.0" y="835"/>
      <point x="449.0" y="835"/>
      <point x="425.0" y="804" type="qcurve"/>
      <point x="400.0" y="771"/>
      <point x="400.0" y="771"/>
      <point x="373.0" y="808" type="qcurve"/>
      <point x="344.0" y="845"/>
      <point x="278.0" y="930"/>
      <point x="230.0" y="994" type="qcurve"/>
      <point x="145.0" y="1106"/>
      <point x="118.0" y="1142"/>
      <point x="90.0" y="1179" type="qcurve"/>
      <point x="62.0" y="1216"/>
      <point x="62.0" y="1216"/>
    </contour>
    <contour>
      <point x="31.0" y="1192" type="qcurve"/>
      <point x="62.0" y="1216"/>
      <point x="62.0" y="1216"/>
      <point x="90.0" y="1179" type="qcurve"/>
      <point x="118.0" y="1142"/>
      <point x="145.0" y="1106"/>
      <point x="230.0" y="994" type="qcurve"/>
      <point x="278.0" y="930"/>
      <point x="344.0" y="845"/>
      <point x="373.0" y="808" type="qcurve"/>
      <point x="400.0" y="771"/>
      <point x="400.0" y="771"/>
      <point x="377.0" y="739" type="qcurve"/>
      <point x="354" y="706"/>
      <point x="354" y="706"/>
      <point x="264.0" y="821" type="qcurve"/>
      <point x="248.0" y="843"/>
      <point x="217.0" y="883"/>
      <point x="168.0" y="946" type="qcurve"/>
      <point x="82.0" y="1060"/>
      <point x="56.0" y="1095"/>
      <point x="27.0" y="1132" type="qcurve"/>
      <point x="0.0" y="1169"/>
      <point x="0.0" y="1169"/>
    </contour>
  </outline>
</glyph>
<glyph name="part2m" format="2">
  <advance width="1168"/>
  <outline>
    <contour>
      <point x="965" y="132" type="qcurve"/>
      <point x="934" y="108"/>
      <point x="934" y="108"/>
      <point x="906" y="145" type="qcurve"/>
      <point x="878" y="182"/>
      <point x="822" y="262"/>
      <point x="736" y="374" type="qcurve"/>
      <point x="672" y="459"/>
      <point x="645" y="493"/>
      <point x="617" y="531" type="qcurve"/>
      <point x="580" y="580"/>
      <point x="580" y="580"/>
      <point x="604" y="611" type="qcurve"/>
      <point x="629" y="644"/>
      <point x="629" y="644"/>
      <point x="656" y="607" type="qcurve"/>
      <point x="685" y="570"/>
      <point x="751" y="485"/>
      <point x="799" y="421" type="qcurve"/>
      <point x="884" y="309"/>
      <point x="940" y="229"/>
      <point x="968" y="192" type="qcurve"/>
      <point x="996" y="155"/>
      <point x="996" y="155"/>
    </contour>
    <contour>
      <point x="1027" y="179" type="qcurve"/>
      <point x="996" y="155"/>
      <point x="996" y="155"/>
      <point x="968" y="192" type="qcurve"/>
      <point x="940" y="229"/>
      <point x="884" y="309"/>
      <point x="799" y="421" type="qcurve"/>
      <point x="751" y="485"/>
      <point x="685" y="570"/>
      <point x="656" y="607" type="qcurve"/>
      <point x="629" y="644"/>
      <point x="629" y="644"/>
      <point x="652" y="676" type="qcurve"/>
      <point x="677" y="709"/>
      <point x="677" y="709"/>
      <point x="765" y="594" type="qcurve"/>
      <point x="781" y="572"/>
      <point x="812" y="532"/>
      <point x="861" y="469" type="qcurve"/>
      <point x="947" y="355"/>
      <point x="1002" y="276"/>
      <point x="1031" y="239" type="qcurve"/>
      <point x="1058" y="202"/>
      <point x="1058" y="202"/>
    </contour>
  </outline>
</glyph>
<glyph name="part2q" format="2">
  <advance width="270"/>
  <outline>
    <contour>
      <point x="205" y="152" type="qcurve"/>
      <point x="166" y="152"/>
      <point x="166" y="152"/>
      <point x="153" y="189" type="qcurve"/>
      <point x="139" y="229"/>
      <point x="126" y="267"/>
      <point x="84" y="386" type="qcurve"/>
      <point x="44" y="500"/>
      <point x="29" y="543"/>
      <point x="15" y="582" type="qcurve"/>
      <point x="0" y="623"/>
      <point x="0" y="623"/>
      <point x="37" y="635" type="qcurve"/>
      <point x="74" y="648"/>
      <point x="74" y="648"/>
      <point x="88" y="608" type="qcurve"/>
      <point x="102" y="568"/>
      <point x="116" y="526"/>
      <point x="155" y="411" type="qcurve"/>
      <point x="196" y="291"/>
      <point x="208" y="254"/>
      <point x="223" y="215" type="qcurve"/>
      <point x="246" y="152"/>
      <point x="246" y="152"/>
    </contour>
    <contour>
      <point x="260" y="233" type="qcurve"/>
      <point x="246" y="152"/>
      <point x="246" y="152"/>
      <point x="223" y="215" type="qcurve"/>
      <point x="208" y="254"/>
      <point x="196" y="291"/>
      <point x="155" y="411" type="qcurve"/>
      <point x="116" y="526"/>
      <point x="102" y="568"/>
      <point x="88" y="608" type="qcurve"/>
      <point x="74" y="648"/>
      <point x="74" y="648"/>
      <point x="112" y="660" type="qcurve"/>
      <point x="148" y="673"/>
      <point x="148" y="673"/>
      <point x="161" y="634" type="qcurve"/>
      <point x="175" y="594"/>
      <point x="190" y="550"/>
      <point x="224" y="446" type="qcurve"/>
      <point x="240" y="396"/>
      <point x="245" y="381"/>
      <point x="258" y="342" type="qcurve"/>
      <point x="270" y="303"/>
      <point x="270" y="303"/>
    </contour>
  </outline>
</glyph>
<glyph name="part2s" format="2">
  <advance width="262"/>
  <outline>
    <contour>
      <point x="11" y="228" type="qcurve"/>
      <point x="0" y="303"/>
      <point x="0" y="303"/>
      <point x="8" y="327" type="qcurve"/>
      <point x="19" y="362"/>
      <point x="33" y="405"/>
      <point x="49" y="450" type="qcurve"/>
      <point x="84" y="555"/>
      <point x="98" y="594"/>
      <point x="110" y="629" type="qcurve"/>
      <point x="122" y="665"/>
      <point x="122" y="665"/>
      <point x="157" y="654" type="qcurve"/>
      <point x="192" y="642"/>
      <point x="192" y="642"/>
      <point x="180" y="606" type="qcurve"/>
      <point x="168" y="570"/>
      <point x="154" y="530"/>
      <point x="119" y="426" type="qcurve"/>
      <point x="82" y="317"/>
      <point x="58" y="245"/>
      <point x="45" y="209" type="qcurve"/>
      <point x="24" y="152"/>
      <point x="24" y="152"/>
    </contour>
    <contour>
      <point x="65" y="152" type="qcurve"/>
      <point x="24" y="152"/>
      <point x="24" y="152"/>
      <point x="45" y="209" type="qcurve"/>
      <point x="58" y="245"/>
      <point x="82" y="317"/>
      <point x="119" y="426" type="qcurve"/>
      <point x="154" y="531"/>
      <point x="168" y="570"/>
      <point x="180" y="606" type="qcurve"/>
      <point x="192" y="642"/>
      <point x="192" y="642"/>
      <point x="227" y="630" type="qcurve"/>
      <point x="262" y="618"/>
      <point x="262" y="618"/>
      <point x="250" y="582" type="qcurve"/>
      <point x="238" y="546"/>
      <point x="224" y="506"/>
      <point x="189" y="402" type="qcurve"/>
      <point x="151" y="291"/>
      <point x="128" y="224"/>
      <point x="116" y="188" type="qcurve"/>
      <point x="104" y="152"/>
      <point x="104" y="152"/>
    </contour>
  </outline>
</glyph>
<glyph name="part2t" format="2">
  <advance width="221"/>
  <outline>
    <contour>
      <point x="63" y="152" type="qcurve"/>
      <point x="24" y="152"/>
      <point x="24" y="152"/>
      <point x="59" y="247" type="qcurve"/>
      <point x="77" y="299"/>
      <point x="119" y="412"/>
      <point x="138" y="473" type="qcurve"/>
      <point x="150" y="510"/>
      <point x="150" y="510"/>
      <point x="185" y="498" type="qcurve"/>
      <point x="221" y="487"/>
      <point x="221" y="487"/>
      <point x="208" y="449" type="qcurve"/>
      <point x="186" y="382"/>
      <point x="131" y="228"/>
      <point x="116" y="186" type="qcurve"/>
      <point x="104" y="152"/>
      <point x="104" y="152"/>
    </contour>
    <contour>
      <point x="11" y="228" type="qcurve"/>
      <point x="0" y="302"/>
      <point x="0" y="302"/>
      <point x="13" y="335" type="qcurve"/>
      <point x="18" y="349"/>
      <point x="44" y="421"/>
      <point x="68" y="497" type="qcurve"/>
      <point x="80" y="533"/>
      <point x="80" y="533"/>
      <point x="116" y="521" type="qcurve"/>
      <point x="150" y="510"/>
      <point x="150" y="510"/>
      <point x="138" y="473" type="qcurve"/>
      <point x="119" y="412"/>
      <point x="77" y="299"/>
      <point x="59" y="247" type="qcurve"/>
      <point x="24" y="152"/>
      <point x="24" y="152"/>
    </contour>
  </outline>
</glyph>
<glyph name="part3a" format="2">
  <advance width="820"/>
  <outline>
    <contour>
      <point x="40" y="0" type="qcurve"/>
      <point x="0" y="0"/>
      <point x="0" y="0"/>
      <point x="16" y="38" type="qcurve"/>
      <point x="33" y="76"/>
      <point x="33" y="76"/>
      <point x="73" y="76" type="qcurve"/>
      <point x="191" y="76"/>
      <point x="292" y="76"/>
      <point x="410" y="76" type="qcurve"/>
      <point x="528" y="76"/>
      <point x="629" y="76"/>
      <point x="747" y="76" type="qcurve"/>
      <point x="787" y="76"/>
      <point x="787" y="76"/>
      <point x="804" y="38" type="qcurve"/>
      <point x="820" y="0"/>
      <point x="820" y="0"/>
      <point x="780" y="0" type="qcurve"/>
      <point x="662" y="0"/>
      <point x="527" y="0"/>
      <point x="410" y="0" type="qcurve"/>
      <point x="291" y="0"/>
      <point x="158" y="0"/>
    </contour>
    <contour>
      <point x="73" y="76" type="qcurve"/>
      <point x="33" y="76"/>
      <point x="33" y="76"/>
      <point x="49" y="114" type="qcurve"/>
      <point x="65" y="152"/>
      <point x="65" y="152"/>
      <point x="105" y="152" type="qcurve"/>
      <point x="223" y="152"/>
      <point x="292" y="152"/>
      <point x="410" y="152" type="qcurve"/>
      <point x="528" y="152"/>
      <point x="597" y="152"/>
      <point x="715" y="152" type="qcurve"/>
      <point x="755" y="152"/>
      <point x="755" y="152"/>
      <point x="771" y="114" type="qcurve"/>
      <point x="787" y="76"/>
      <point x="787" y="76"/>
      <point x="747" y="76" type="qcurve"/>
      <point x="629" y="76"/>
      <point x="527" y="76"/>
      <point x="410" y="76" type="qcurve"/>
      <point x="291" y="76"/>
      <point x="191" y="76"/>
    </contour>
  </outline>
</glyph>
<glyph name="part3c" format="2">
  <advance width="902"/>
  <outline>
    <contour>
      <point x="599" y="1368" type="qcurve"/>
      <point x="660" y="1368"/>
      <point x="660" y="1368"/>
      <point x="660" y="1330" type="qcurve"/>
      <point x="660" y="1292"/>
      <point x="660" y="1292"/>
      <point x="599" y="1292" type="qcurve"/>
      <point x="526" y="1292"/>
      <point x="441" y="1292"/>
      <point x="391" y="1292" type="qcurve" smooth="yes"/>
      <point x="341" y="1292"/>
      <point x="268" y="1292"/>
      <point x="215" y="1292" type="qcurve"/>
      <point x="190" y="1292"/>
      <point x="190" y="1292"/>
      <point x="190" y="1330" type="qcurve"/>
      <point x="190" y="1368"/>
      <point x="190" y="1368"/>
      <point x="215" y="1368" type="qcurve"/>
      <point x="268" y="1368"/>
      <point x="341" y="1368"/>
      <point x="391" y="1368" type="qcurve" smooth="yes"/>
      <point x="441" y="1368"/>
      <point x="526" y="1368"/>
    </contour>
    <contour>
      <point x="599" y="1292" type="qcurve"/>
      <point x="660" y="1292"/>
      <point x="660" y="1292"/>
      <point x="643" y="1254" type="qcurve"/>
      <point x="625" y="1216"/>
      <point x="625" y="1216"/>
      <point x="599" y="1216" type="qcurve"/>
      <point x="526" y="1216"/>
      <point x="441" y="1216"/>
      <point x="391" y="1216" type="qcurve" smooth="yes"/>
      <point x="341" y="1216"/>
      <point x="268" y="1216"/>
      <point x="215" y="1216" type="qcurve"/>
      <point x="190" y="1216"/>
      <point x="190" y="1216"/>
      <point x="190" y="1254" type="qcurve"/>
      <point x="190" y="1292"/>
      <point x="190" y="1292"/>
      <point x="215" y="1292" type="qcurve"/>
      <point x="268" y="1292"/>
      <point x="341" y="1292"/>
      <point x="391" y="1292" type="qcurve" smooth="yes"/>
      <point x="441" y="1292"/>
      <point x="526" y="1292"/>
    </contour>
  </outline>
</glyph>
<glyph name="part3e" format="2">
  <advance width="902"/>
  <outline>
    <contour>
      <point x="418" y="425" type="qcurve"/>
      <point x="445" y="401"/>
      <point x="445" y="401"/>
      <point x="412" y="367" type="qcurve"/>
      <point x="376" y="331"/>
      <point x="344" y="299"/>
      <point x="327" y="281" type="qcurve"/>
      <point x="305" y="258"/>
      <point x="247" y="202"/>
      <point x="227" y="181" type="qcurve"/>
      <point x="199" y="152"/>
      <point x="199" y="152"/>
      <point x="159" y="152" type="qcurve"/>
      <point x="117" y="152"/>
      <point x="117" y="152"/>
      <point x="160" y="198" type="qcurve"/>
      <point x="189" y="230"/>
      <point x="240" y="285"/>
      <point x="280" y="329" type="qcurve"/>
      <point x="296" y="346"/>
      <point x="327" y="380"/>
      <point x="359" y="415" type="qcurve"/>
      <point x="390" y="449"/>
      <point x="390" y="449"/>
    </contour>
    <contour>
      <point x="363" y="474" type="qcurve"/>
      <point x="390" y="449"/>
      <point x="390" y="449"/>
      <point x="359" y="415" type="qcurve"/>
      <point x="327" y="380"/>
      <point x="296" y="346"/>
      <point x="280" y="329" type="qcurve"/>
      <point x="240" y="285"/>
      <point x="189" y="230"/>
      <point x="160" y="198" type="qcurve"/>
      <point x="117" y="152"/>
      <point x="117" y="152"/>
      <point x="76" y="152" type="qcurve"/>
      <point x="35" y="152"/>
      <point x="35" y="152"/>
      <point x="65" y="187" type="qcurve"/>
      <point x="83" y="208"/>
      <point x="189" y="331"/>
      <point x="230" y="376" type="qcurve"/>
      <point x="246" y="395"/>
      <point x="274" y="427"/>
      <point x="305" y="463" type="qcurve"/>
      <point x="336" y="498"/>
      <point x="336" y="498"/>
    </contour>
  </outline>
</glyph>
<glyph name="part3h" format="2">
  <advance width="802"/>
  <outline>
    <contour>
      <point x="325" y="912" type="qcurve"/>
      <point x="281" y="912"/>
      <point x="281" y="912"/>
      <point x="305" y="940" type="qcurve"/>
      <point x="362" y="1002"/>
      <point x="506" y="1145"/>
      <point x="553" y="1196" type="qcurve"/>
      <point x="572" y="1216"/>
      <point x="573" y="1216"/>
      <point x="611" y="1216" type="qcurve"/>
      <point x="654" y="1216"/>
      <point x="654" y="1216"/>
      <point x="635" y="1196" type="qcurve"/>
      <point x="586" y="1144"/>
      <point x="422" y="975"/>
      <point x="387" y="939" type="qcurve"/>
      <point x="363" y="912"/>
      <point x="363" y="912"/>
    </contour>
    <contour>
      <point x="403" y="912" type="qcurve"/>
      <point x="363" y="912"/>
      <point x="363" y="912"/>
      <point x="387" y="939" type="qcurve"/>
      <point x="422" y="975"/>
      <point x="586" y="1144"/>
      <point x="635" y="1196" type="qcurve"/>
      <point x="654" y="1216"/>
      <point x="654" y="1216"/>
      <point x="696" y="1216" type="qcurve"/>
      <point x="736" y="1216"/>
      <point x="736" y="1216"/>
      <point x="717" y="1196" type="qcurve"/>
      <point x="654" y="1130"/>
      <point x="494" y="966"/>
      <point x="470" y="939" type="qcurve"/>
      <point x="446" y="912"/>
      <point x="446" y="912"/>
    </contour>
  </outline>
</glyph>
<glyph name="part3j" format="2">
  <advance width="984"/>
  <outline>
    <contour>
      <point x="463" y="1228" type="qcurve"/>
      <point x="491" y="1282"/>
      <point x="491" y="1282"/>
      <point x="529" y="1262" type="qcurve"/>
      <point x="562" y="1245"/>
      <point x="562" y="1245"/>
      <point x="530" y="1187" type="qcurve"/>
      <point x="504" y="1138"/>
      <point x="467" y="1068"/>
      <point x="409" y="960" type="qcurve"/>
      <point x="350" y="851"/>
      <point x="284" y="728"/>
      <point x="241" y="651" type="qcurve"/>
      <point x="222" y="613"/>
      <point x="222" y="613"/>
      <point x="176" y="613" type="qcurve"/>
      <point x="131" y="613"/>
      <point x="131" y="613"/>
      <point x="151" y="652" type="qcurve"/>
      <point x="211" y="759"/>
      <point x="278" y="886"/>
      <point x="336" y="994" type="qcurve"/>
      <point x="396" y="1102"/>
      <point x="419" y="1148"/>
    </contour>
    <contour>
      <point x="530" y="1187" type="qcurve"/>
      <point x="562" y="1245"/>
      <point x="562" y="1245"/>
      <point x="596" y="1226" type="qcurve"/>
      <point x="632" y="1207"/>
      <point x="632" y="1207"/>
      <point x="604" y="1155" type="qcurve"/>
      <point x="571" y="1095"/>
      <point x="519" y="998"/>
      <point x="480" y="926" type="qcurve"/>
      <point x="422" y="817"/>
      <point x="370" y="722"/>
      <point x="331" y="649" type="qcurve"/>
      <point x="311" y="613"/>
      <point x="311" y="613"/>
      <point x="266" y="613" type="qcurve"/>
      <point x="222" y="613"/>
      <point x="222" y="613"/>
      <point x="241" y="651" type="qcurve"/>
      <point x="284" y="728"/>
      <point x="350" y="851"/>
      <point x="409" y="960" type="qcurve"/>
      <point x="467" y="1068"/>
      <point x="504" y="1138"/>
    </contour>
  </outline>
</glyph>
<glyph name="part4" format="2">
  <advance width="242"/>
  <outline>
    <contour>
      <point x="201" y="152" type="qcurve"/>
      <point x="242" y="152"/>
      <point x="242" y="152"/>
      <point x="226" y="116" type="qcurve"/>
      <point x="210" y="80"/>
      <point x="210" y="80"/>
      <point x="167" y="80" type="qcurve"/>
      <point x="121" y="80"/>
      <point x="121" y="80"/>
      <point x="141" y="117" type="qcurve"/>
      <point x="161" y="152"/>
      <point x="161" y="152"/>
    </contour>
    <contour>
      <point x="167" y="80" type="qcurve"/>
      <point x="210" y="80"/>
      <point x="210" y="80"/>
      <point x="192" y="39" type="qcurve"/>
      <point x="175" y="0"/>
      <point x="175" y="0"/>
      <point x="147" y="0" type="qcurve"/>
      <point x="121" y="0"/>
      <point x="121" y="0"/>
      <point x="121" y="39" type="qcurve"/>
      <point x="121" y="80"/>
      <point x="121" y="80"/>
    </contour>
    <contour>
      <point x="141" y="200" type="qcurve"/>
      <point x="161" y="152"/>
      <point x="161" y="152"/>
      <point x="141" y="117" type="qcurve"/>
      <point x="121" y="80"/>
      <point x="121" y="80"/>
      <point x="99" y="118" type="qcurve"/>
      <point x="80" y="152"/>
      <point x="80" y="152"/>
      <point x="101" y="199" type="qcurve"/>
      <point x="121" y="245"/>
      <point x="121" y="245"/>
    </contour>
    <contour>
      <point x="41" y="152" type="qcurve"/>
      <point x="80" y="152"/>
      <point x="80" y="152"/>
      <point x="99" y="118" type="qcurve"/>
      <point x="121" y="80"/>
      <point x="121" y="80"/>
      <point x="75" y="80" type="qcurve"/>
      <point x="32" y="80"/>
      <point x="32" y="80"/>
      <point x="16" y="116" type="qcurve"/>
      <point x="0" y="152"/>
      <point x="0" y="152"/>
    </contour>
    <contour>
      <point x="75" y="80" type="qcurve"/>
      <point x="121" y="80"/>
      <point x="121" y="80"/>
      <point x="121" y="39" type="qcurve"/>
      <point x="121" y="0"/>
      <point x="121" y="0"/>
      <point x="95" y="0" type="qcurve"/>
      <point x="67" y="0"/>
      <point x="67" y="0"/>
      <point x="50" y="39" type="qcurve"/>
      <point x="32" y="80"/>
      <point x="32" y="80"/>
    </contour>
  </outline>
</glyph>
<glyph name="part4a" format="2">
  <advance width="164"/>
  <outline>
    <contour>
      <point x="159" y="154" type="qcurve"/>
      <point x="199" y="154"/>
      <point x="199" y="154"/>
      <point x="178" y="119" type="qcurve"/>
      <point x="167" y="82"/>
      <point x="167" y="82"/>
      <point x="130" y="82" type="qcurve"/>
      <point x="82" y="82"/>
      <point x="82" y="82"/>
      <point x="98" y="120" type="qcurve"/>
      <point x="116" y="154"/>
      <point x="116" y="154"/>
    </contour>
    <contour>
      <point x="130" y="82" type="qcurve"/>
      <point x="167" y="82"/>
      <point x="167" y="82"/>
      <point x="163" y="39" type="qcurve"/>
      <point x="161" y="0"/>
      <point x="161" y="0"/>
      <point x="123" y="0" type="qcurve"/>
      <point x="82" y="0"/>
      <point x="82" y="0"/>
      <point x="82" y="39" type="qcurve"/>
      <point x="82" y="82"/>
      <point x="82" y="82"/>
    </contour>
    <contour>
      <point x="98" y="194" type="qcurve"/>
      <point x="116" y="154"/>
      <point x="116" y="154"/>
      <point x="98" y="120" type="qcurve"/>
      <point x="82" y="82"/>
      <point x="82" y="82"/>
      <point x="66" y="121" type="qcurve"/>
      <point x="46" y="154"/>
      <point x="46" y="154"/>
      <point x="64" y="195" type="qcurve"/>
      <point x="81" y="232"/>
      <point x="81" y="232"/>
    </contour>
    <contour>
      <point x="0" y="154" type="qcurve"/>
      <point x="46" y="154"/>
      <point x="46" y="154"/>
      <point x="66" y="121" type="qcurve"/>
      <point x="82" y="82"/>
      <point x="82" y="82"/>
      <point x="42" y="82" type="qcurve"/>
      <point x="-2" y="82"/>
      <point x="-2" y="82"/>
      <point x="-19" y="119" type="qcurve"/>
      <point x="-45" y="154"/>
      <point x="-45" y="154"/>
    </contour>
    <contour>
      <point x="42" y="82" type="qcurve"/>
      <point x="82" y="82"/>
      <point x="82" y="82"/>
      <point x="82" y="39" type="qcurve"/>
      <point x="82" y="0"/>
      <point x="82" y="0"/>
      <point x="43" y="0" type="qcurve"/>
      <point x="4" y="0"/>
      <point x="4" y="0"/>
      <point x="2" y="40" type="qcurve"/>
      <point x="-2" y="82"/>
      <point x="-2" y="82"/>
    </contour>
  </outline>
</glyph>
<glyph name="part4c" format="2">
  <advance width="155"/>
  <outline>
    <contour>
      <point x="149" y="152" type="qcurve"/>
      <point x="188" y="152"/>
      <point x="188" y="152"/>
      <point x="170" y="115" type="qcurve"/>
      <point x="158" y="80"/>
      <point x="158" y="80"/>
      <point x="117" y="80" type="qcurve"/>
      <point x="78" y="80"/>
      <point x="78" y="80"/>
      <point x="95" y="117" type="qcurve"/>
      <point x="111" y="152"/>
      <point x="111" y="152"/>
    </contour>
    <contour>
      <point x="117" y="80" type="qcurve"/>
      <point x="158" y="80"/>
      <point x="158" y="80"/>
      <point x="155" y="39" type="qcurve"/>
      <point x="154" y="0"/>
      <point x="154" y="0"/>
      <point x="114" y="0" type="qcurve"/>
      <point x="78" y="0"/>
      <point x="78" y="0"/>
      <point x="78" y="39" type="qcurve"/>
      <point x="78" y="80"/>
      <point x="78" y="80"/>
    </contour>
    <contour>
      <point x="95" y="193" type="qcurve"/>
      <point x="111" y="152"/>
      <point x="111" y="152"/>
      <point x="95" y="117" type="qcurve"/>
      <point x="78" y="80"/>
      <point x="78" y="80"/>
      <point x="59" y="118" type="qcurve"/>
      <point x="43" y="152"/>
      <point x="43" y="152"/>
      <point x="61" y="192" type="qcurve"/>
      <point x="78" y="231"/>
      <point x="78" y="231"/>
    </contour>
    <contour>
      <point x="10" y="152" type="qcurve"/>
      <point x="43" y="152"/>
      <point x="43" y="152"/>
      <point x="59" y="118" type="qcurve"/>
      <point x="78" y="80"/>
      <point x="78" y="80"/>
      <point x="36" y="80" type="qcurve"/>
      <point x="-4" y="80"/>
      <point x="-4" y="80"/>
      <point x="-11" y="116" type="qcurve"/>
      <point x="-21" y="152"/>
      <point x="-21" y="152"/>
    </contour>
    <contour>
      <point x="36" y="80" type="qcurve"/>
      <point x="78" y="80"/>
      <point x="78" y="80"/>
      <point x="78" y="39" type="qcurve"/>
      <point x="78" y="0"/>
      <point x="78" y="0"/>
      <point x="41" y="0" type="qcurve"/>
      <point x="2" y="0"/>
      <point x="2" y="0"/>
      <point x="0" y="39" type="qcurve"/>
      <point x="-4" y="80"/>
      <point x="-4" y="80"/>
    </contour>
  </outline>
</glyph>
<glyph name="part4d" format="2">
  <advance width="1139"/>
  <outline>
    <contour>
      <point x="657" y="642" type="qcurve"/>
      <point x="702" y="642"/>
      <point x="702" y="642"/>
      <point x="675" y="601" type="qcurve"/>
      <point x="653" y="567"/>
      <point x="653" y="567"/>
      <point x="617" y="567" type="qcurve"/>
      <point x="571" y="567"/>
      <point x="571" y="567"/>
      <point x="592" y="602" type="qcurve"/>
      <point x="617" y="642"/>
      <point x="617" y="642"/>
    </contour>
    <contour>
      <point x="617" y="567" type="qcurve"/>
      <point x="653" y="567"/>
      <point x="653" y="567"/>
      <point x="653" y="528" type="qcurve"/>
      <point x="653" y="491"/>
      <point x="653" y="491"/>
      <point x="611" y="491" type="qcurve"/>
      <point x="571" y="491"/>
      <point x="571" y="491"/>
      <point x="571" y="528" type="qcurve"/>
      <point x="571" y="567"/>
      <point x="571" y="567"/>
    </contour>
    <contour>
      <point x="595" y="676" type="qcurve"/>
      <point x="617" y="642"/>
      <point x="617" y="642"/>
      <point x="592" y="602" type="qcurve"/>
      <point x="571" y="567"/>
      <point x="571" y="567"/>
      <point x="549" y="603" type="qcurve"/>
      <point x="525" y="642"/>
      <point x="525" y="642"/>
      <point x="548" y="676" type="qcurve"/>
      <point x="572" y="714"/>
      <point x="572" y="714"/>
    </contour>
    <contour>
      <point x="485" y="642" type="qcurve"/>
      <point x="525" y="642"/>
      <point x="525" y="642"/>
      <point x="549" y="603" type="qcurve"/>
      <point x="571" y="567"/>
      <point x="571" y="567"/>
      <point x="525" y="567" type="qcurve"/>
      <point x="489" y="567"/>
      <point x="489" y="567"/>
      <point x="466" y="601" type="qcurve"/>
      <point x="440" y="642"/>
      <point x="440" y="642"/>
    </contour>
    <contour>
      <point x="525" y="567" type="qcurve"/>
      <point x="571" y="567"/>
      <point x="571" y="567"/>
      <point x="571" y="528" type="qcurve"/>
      <point x="571" y="491"/>
      <point x="571" y="491"/>
      <point x="531" y="491" type="qcurve"/>
      <point x="489" y="491"/>
      <point x="489" y="491"/>
      <point x="489" y="528" type="qcurve"/>
      <point x="489" y="567"/>
      <point x="489" y="567"/>
    </contour>
  </outline>
</glyph>
<glyph name="part5" format="2">
  <advance width="899"/>
  <outline>
    <contour>
      <point x="860" y="0" type="qcurve"/>
      <point x="817" y="0"/>
      <point x="817" y="0"/>
      <point x="812" y="38" type="qcurve"/>
      <point x="768" y="254"/>
      <point x="425" y="532"/>
      <point x="205" y="532" type="qcurve"/>
      <point x="166" y="532"/>
      <point x="82" y="532"/>
      <point x="39" y="532" type="qcurve"/>
      <point x="0" y="532"/>
      <point x="0" y="532"/>
      <point x="0" y="574" type="qcurve"/>
      <point x="0" y="608"/>
      <point x="0" y="608"/>
      <point x="39" y="608" type="qcurve"/>
      <point x="82" y="608"/>
      <point x="165" y="608"/>
      <point x="206" y="608" type="qcurve"/>
      <point x="478" y="608"/>
      <point x="862" y="289"/>
      <point x="895" y="39" type="qcurve"/>
      <point x="899" y="0"/>
      <point x="899" y="0"/>
    </contour>
    <contour>
      <point x="775" y="0" type="qcurve"/>
      <point x="729" y="0"/>
      <point x="729" y="0"/>
      <point x="722" y="36" type="qcurve"/>
      <point x="686" y="221"/>
      <point x="398" y="456"/>
      <point x="186" y="456" type="qcurve"/>
      <point x="165" y="456"/>
      <point x="82" y="456"/>
      <point x="39" y="456" type="qcurve"/>
      <point x="0" y="456"/>
      <point x="0" y="456"/>
      <point x="0" y="494" type="qcurve"/>
      <point x="0" y="532"/>
      <point x="0" y="532"/>
      <point x="39" y="532" type="qcurve"/>
      <point x="82" y="532"/>
      <point x="166" y="532"/>
      <point x="205" y="532" type="qcurve"/>
      <point x="425" y="532"/>
      <point x="768" y="254"/>
      <point x="812" y="38" type="qcurve"/>
      <point x="817" y="0"/>
      <point x="817" y="0"/>
    </contour>
  </outline>
</glyph>
<glyph name="part5d" format="2">
  <advance width="381"/>
  <outline>
    <contour>
      <point x="259" y="0" type="qcurve"/>
      <point x="219" y="0"/>
      <point x="219" y="0"/>
      <point x="215" y="23" type="qcurve"/>
      <point x="205" y="72"/>
      <point x="119" y="114"/>
      <point x="45" y="114" type="qcurve"/>
      <point x="0" y="114"/>
      <point x="0" y="114"/>
      <point x="0" y="151" type="qcurve"/>
      <point x="0" y="190"/>
      <point x="0" y="190"/>
      <point x="45" y="190" type="qcurve"/>
      <point x="146" y="190"/>
      <point x="289" y="100"/>
      <point x="298" y="26" type="qcurve"/>
      <point x="301" y="0"/>
      <point x="301" y="0"/>
    </contour>
    <contour>
      <point x="342" y="0" type="qcurve"/>
      <point x="301" y="0"/>
      <point x="301" y="0"/>
      <point x="298" y="26" type="qcurve"/>
      <point x="289" y="100"/>
      <point x="146" y="190"/>
      <point x="45" y="190" type="qcurve"/>
      <point x="0" y="190"/>
      <point x="0" y="190"/>
      <point x="0" y="228" type="qcurve"/>
      <point x="0" y="266"/>
      <point x="0" y="266"/>
      <point x="45" y="266" type="qcurve"/>
      <point x="167" y="266"/>
      <point x="352" y="139"/>
      <point x="377" y="30" type="qcurve"/>
      <point x="381" y="0"/>
      <point x="381" y="0"/>
    </contour>
  </outline>
</glyph>
<glyph name="part5e" format="2">
  <advance width="430"/>
  <outline>
    <contour>
      <point x="306" y="352" type="qcurve"/>
      <point x="347" y="352"/>
      <point x="347" y="352"/>
      <point x="338" y="312" type="qcurve"/>
      <point x="300" y="191"/>
      <point x="105" y="76"/>
      <point x="15" y="76" type="qcurve"/>
      <point x="0" y="76"/>
      <point x="0" y="76"/>
      <point x="0" y="115" type="qcurve"/>
      <point x="0" y="152"/>
      <point x="0" y="152"/>
      <point x="15" y="152" type="qcurve"/>
      <point x="87" y="152"/>
      <point x="216" y="231"/>
      <point x="253" y="311" type="qcurve"/>
      <point x="265" y="352"/>
      <point x="265" y="352"/>
    </contour>
    <contour>
      <point x="389" y="352" type="qcurve"/>
      <point x="430" y="352"/>
      <point x="430" y="352"/>
      <point x="423" y="309" type="qcurve"/>
      <point x="381" y="147"/>
      <point x="142" y="0"/>
      <point x="15" y="0" type="qcurve"/>
      <point x="0" y="0"/>
      <point x="0" y="0"/>
      <point x="0" y="38" type="qcurve"/>
      <point x="0" y="76"/>
      <point x="0" y="76"/>
      <point x="15" y="76" type="qcurve"/>
      <point x="105" y="76"/>
      <point x="300" y="191"/>
      <point x="338" y="312" type="qcurve"/>
      <point x="347" y="352"/>
      <point x="347" y="352"/>
    </contour>
  </outline>
</glyph>
<glyph name="part5g" format="2">
  <advance width="330"/>
  <outline>
    <contour>
      <point x="206" y="504" type="qcurve"/>
      <point x="165" y="504"/>
      <point x="165" y="504"/>
      <point x="159" y="527" type="qcurve"/>
      <point x="143" y="571"/>
      <point x="65" y="629"/>
      <point x="27" y="650" type="qcurve"/>
      <point x="0" y="663"/>
      <point x="0" y="663"/>
      <point x="0" y="701" type="qcurve"/>
      <point x="0" y="740"/>
      <point x="0" y="740"/>
      <point x="40" y="723" type="qcurve"/>
      <point x="104" y="696"/>
      <point x="230" y="600"/>
      <point x="245" y="531" type="qcurve"/>
      <point x="249" y="504"/>
      <point x="249" y="504"/>
    </contour>
    <contour>
      <point x="290" y="504" type="qcurve"/>
      <point x="249" y="504"/>
      <point x="249" y="504"/>
      <point x="245" y="531" type="qcurve"/>
      <point x="230" y="600"/>
      <point x="104" y="696"/>
      <point x="40" y="723" type="qcurve"/>
      <point x="0" y="740"/>
      <point x="0" y="740"/>
      <point x="42" y="757" type="qcurve"/>
      <point x="79" y="773"/>
      <point x="79" y="773"/>
      <point x="106" y="763" type="qcurve" smooth="yes"/>
      <point x="197" y="728"/>
      <point x="309" y="613"/>
      <point x="326" y="535" type="qcurve"/>
      <point x="330" y="504"/>
      <point x="330" y="504"/>
    </contour>
  </outline>
</glyph>
<glyph name="part5i" format="2">
  <advance width="969"/>
  <outline>
    <contour>
      <point x="354" y="1369" type="qcurve"/>
      <point x="383" y="1369"/>
      <point x="438" y="1369"/>
      <point x="466" y="1369" type="qcurve"/>
      <point x="645" y="1369"/>
      <point x="889" y="1189"/>
      <point x="926" y="1022" type="qcurve"/>
      <point x="930" y="995"/>
      <point x="930" y="995"/>
      <point x="889" y="995" type="qcurve"/>
      <point x="847" y="995"/>
      <point x="847" y="995"/>
      <point x="843" y="1019" type="qcurve"/>
      <point x="808" y="1154"/>
      <point x="609" y="1293"/>
      <point x="465" y="1293" type="qcurve"/>
      <point x="439" y="1293"/>
      <point x="383" y="1293"/>
      <point x="354" y="1293" type="qcurve"/>
      <point x="328" y="1293"/>
      <point x="328" y="1293"/>
      <point x="328" y="1335" type="qcurve"/>
      <point x="328" y="1369"/>
      <point x="328" y="1369"/>
    </contour>
    <contour>
      <point x="354" y="1293" type="qcurve"/>
      <point x="383" y="1293"/>
      <point x="439" y="1293"/>
      <point x="465" y="1293" type="qcurve"/>
      <point x="609" y="1293"/>
      <point x="808" y="1154"/>
      <point x="843" y="1019" type="qcurve"/>
      <point x="847" y="995"/>
      <point x="847" y="995"/>
      <point x="805" y="995" type="qcurve"/>
      <point x="762" y="995"/>
      <point x="762" y="995"/>
      <point x="758" y="1017" type="qcurve"/>
      <point x="729" y="1112"/>
      <point x="586" y="1216"/>
      <point x="452" y="1216" type="qcurve"/>
      <point x="438" y="1216"/>
      <point x="383" y="1216"/>
      <point x="354" y="1216" type="qcurve"/>
      <point x="328" y="1216"/>
      <point x="328" y="1216"/>
      <point x="328" y="1255" type="qcurve"/>
      <point x="328" y="1293"/>
      <point x="328" y="1293"/>
    </contour>
  </outline>
</glyph>
<glyph name="part5j" format="2">
  <advance width="969"/>
  <outline>
    <contour>
      <point x="354" y="465" type="qcurve"/>
      <point x="328" y="465"/>
      <point x="328" y="465"/>
      <point x="328" y="499" type="qcurve"/>
      <point x="328" y="541"/>
      <point x="328" y="541"/>
      <point x="354" y="541" type="qcurve"/>
      <point x="363" y="541"/>
      <point x="379" y="541"/>
      <point x="405" y="541" type="qcurve"/>
      <point x="509" y="541"/>
      <point x="728" y="680"/>
      <point x="763" y="815" type="qcurve"/>
      <point x="767" y="839"/>
      <point x="767" y="839"/>
      <point x="809" y="839" type="qcurve"/>
      <point x="850" y="839"/>
      <point x="850" y="839"/>
      <point x="846" y="812" type="qcurve"/>
      <point x="809" y="645"/>
      <point x="545" y="465"/>
      <point x="406" y="465" type="qcurve"/>
      <point x="378" y="465"/>
      <point x="363" y="465"/>
    </contour>
    <contour>
      <point x="354" y="541" type="qcurve"/>
      <point x="328" y="541"/>
      <point x="328" y="541"/>
      <point x="328" y="579" type="qcurve"/>
      <point x="328" y="618"/>
      <point x="328" y="618"/>
      <point x="354" y="618" type="qcurve"/>
      <point x="363" y="618"/>
      <point x="378" y="618"/>
      <point x="392" y="618" type="qcurve"/>
      <point x="486" y="618"/>
      <point x="649" y="722"/>
      <point x="678" y="817" type="qcurve"/>
      <point x="682" y="839"/>
      <point x="682" y="839"/>
      <point x="725" y="839" type="qcurve"/>
      <point x="767" y="839"/>
      <point x="767" y="839"/>
      <point x="763" y="815" type="qcurve"/>
      <point x="728" y="680"/>
      <point x="509" y="541"/>
      <point x="405" y="541" type="qcurve"/>
      <point x="379" y="541"/>
      <point x="363" y="541"/>
    </contour>
  </outline>
</glyph>
<glyph name="part5k" format="2">
  <advance width="969"/>
  <outline>
    <contour>
      <point x="354" y="1369" type="qcurve"/>
      <point x="363" y="1369"/>
      <point x="378" y="1369"/>
      <point x="406" y="1369" type="qcurve"/>
      <point x="545" y="1369"/>
      <point x="809" y="1189"/>
      <point x="846" y="1022" type="qcurve"/>
      <point x="850" y="995"/>
      <point x="850" y="995"/>
      <point x="809" y="995" type="qcurve"/>
      <point x="767" y="995"/>
      <point x="767" y="995"/>
      <point x="763" y="1019" type="qcurve"/>
      <point x="728" y="1154"/>
      <point x="509" y="1293"/>
      <point x="405" y="1293" type="qcurve"/>
      <point x="379" y="1293"/>
      <point x="363" y="1293"/>
      <point x="354" y="1293" type="qcurve"/>
      <point x="328" y="1293"/>
      <point x="328" y="1293"/>
      <point x="328" y="1335" type="qcurve"/>
      <point x="328" y="1369"/>
      <point x="328" y="1369"/>
    </contour>
    <contour>
      <point x="354" y="1293" type="qcurve"/>
      <point x="363" y="1293"/>
      <point x="379" y="1293"/>
      <point x="405" y="1293" type="qcurve"/>
      <point x="509" y="1293"/>
      <point x="728" y="1154"/>
      <point x="763" y="1019" type="qcurve"/>
      <point x="767" y="995"/>
      <point x="767" y="995"/>
      <point x="725" y="995" type="qcurve"/>
      <point x="682" y="995"/>
      <point x="682" y="995"/>
      <point x="678" y="1017" type="qcurve"/>
      <point x="649" y="1112"/>
      <point x="486" y="1216"/>
      <point x="392" y="1216" type="qcurve"/>
      <point x="378" y="1216"/>
      <point x="363" y="1216"/>
      <point x="354" y="1216" type="qcurve"/>
      <point x="328" y="1216"/>
      <point x="328" y="1216"/>
      <point x="328" y="1255" type="qcurve"/>
      <point x="328" y="1293"/>
      <point x="328" y="1293"/>
    </contour>
  </outline>
</glyph>
<glyph name="part5l" format="2">
  <advance width="380"/>
  <outline>
    <contour>
      <point x="41" y="-16" type="qcurve"/>
      <point x="0" y="-22"/>
      <point x="0" y="-22"/>
      <point x="0" y="17" type="qcurve"/>
      <point x="0" y="51"/>
      <point x="0" y="51"/>
      <point x="36" y="56" type="qcurve"/>
      <point x="128" y="69"/>
      <point x="298" y="286"/>
      <point x="298" y="551" type="qcurve"/>
      <point x="298" y="608"/>
      <point x="298" y="608"/>
      <point x="339" y="608" type="qcurve"/>
      <point x="380" y="608"/>
      <point x="380" y="608"/>
      <point x="380" y="542" type="qcurve"/>
      <point x="380" y="238"/>
      <point x="174" y="4"/>
    </contour>
    <contour>
      <point x="36" y="56" type="qcurve" smooth="yes"/>
      <point x="0" y="51"/>
      <point x="0" y="51"/>
      <point x="0" y="88" type="qcurve" smooth="yes"/>
      <point x="0" y="126"/>
      <point x="0" y="126"/>
      <point x="30" y="132" type="qcurve"/>
      <point x="106" y="149"/>
      <point x="216" y="298"/>
      <point x="216" y="560" type="qcurve"/>
      <point x="216" y="608"/>
      <point x="216" y="608"/>
      <point x="256" y="608" type="qcurve"/>
      <point x="298" y="608"/>
      <point x="298" y="608"/>
      <point x="298" y="551" type="qcurve"/>
      <point x="298" y="286"/>
      <point x="128" y="69"/>
    </contour>
  </outline>
</glyph>
<glyph name="part5n" format="2">
  <advance width="812"/>
  <outline>
    <contour>
      <point x="428" y="42" type="qcurve"/>
      <point x="405" y="38"/>
      <point x="405" y="38"/>
      <point x="405" y="77" type="qcurve"/>
      <point x="405" y="111"/>
      <point x="405" y="111"/>
      <point x="432" y="116" type="qcurve"/>
      <point x="504" y="134"/>
      <point x="597" y="207"/>
      <point x="614" y="257" type="qcurve"/>
      <point x="620" y="287"/>
      <point x="620" y="287"/>
      <point x="661" y="287" type="qcurve"/>
      <point x="699" y="287"/>
      <point x="699" y="287"/>
      <point x="692" y="252" type="qcurve"/>
      <point x="665" y="169"/>
      <point x="526" y="57"/>
    </contour>
    <contour>
      <point x="443" y="-32" type="qcurve"/>
      <point x="405" y="-37"/>
      <point x="405" y="-37"/>
      <point x="405" y="8" type="qcurve"/>
      <point x="405" y="38"/>
      <point x="405" y="38"/>
      <point x="428" y="42" type="qcurve"/>
      <point x="526" y="57"/>
      <point x="665" y="169"/>
      <point x="692" y="252" type="qcurve"/>
      <point x="699" y="287"/>
      <point x="699" y="287"/>
      <point x="740" y="288" type="qcurve"/>
      <point x="780" y="288"/>
      <point x="780" y="288"/>
      <point x="773" y="242" type="qcurve"/>
      <point x="750" y="133"/>
      <point x="567" y="-11"/>
    </contour>
  </outline>
</glyph>
<glyph name="part5q" format="2">
  <advance width="812"/>
  <outline>
    <contour>
      <point x="539" y="734" type="qcurve"/>
      <point x="656" y="663"/>
      <point x="752" y="552"/>
      <point x="771" y="484" type="qcurve"/>
      <point x="780" y="439"/>
      <point x="780" y="439"/>
      <point x="739" y="439" type="qcurve"/>
      <point x="701" y="439"/>
      <point x="701" y="439"/>
      <point x="689" y="475" type="qcurve"/>
      <point x="670" y="518"/>
      <point x="605" y="595"/>
      <point x="499" y="661" type="qcurve"/>
      <point x="475" y="675"/>
      <point x="475" y="675"/>
      <point x="494" y="709" type="qcurve"/>
      <point x="516" y="746"/>
      <point x="516" y="746"/>
    </contour>
    <contour>
      <point x="499" y="661" type="qcurve"/>
      <point x="605" y="595"/>
      <point x="670" y="518"/>
      <point x="689" y="475" type="qcurve"/>
      <point x="701" y="439"/>
      <point x="701" y="439"/>
      <point x="657" y="439" type="qcurve"/>
      <point x="620" y="439"/>
      <point x="620" y="439"/>
      <point x="610" y="466" type="qcurve"/>
      <point x="594" y="497"/>
      <point x="536" y="545"/>
      <point x="457" y="591" type="qcurve"/>
      <point x="434" y="604"/>
      <point x="434" y="604"/>
      <point x="455" y="641" type="qcurve"/>
      <point x="475" y="675"/>
      <point x="475" y="675"/>
    </contour>
  </outline>
</glyph>
<glyph name="part5s" format="2">
  <advance width="1315"/>
  <outline>
    <contour>
      <point x="195" y="-18" type="qcurve"/>
      <point x="150" y="-22"/>
      <point x="150" y="-22"/>
      <point x="150" y="17" type="qcurve"/>
      <point x="150" y="51"/>
      <point x="150" y="51"/>
      <point x="189" y="55" type="qcurve"/>
      <point x="295" y="68"/>
      <point x="498" y="286"/>
      <point x="498" y="551" type="qcurve"/>
      <point x="498" y="608"/>
      <point x="498" y="608"/>
      <point x="539" y="608" type="qcurve"/>
      <point x="580" y="608"/>
      <point x="580" y="608"/>
      <point x="580" y="542" type="qcurve"/>
      <point x="580" y="238"/>
      <point x="341" y="-3"/>
    </contour>
    <contour>
      <point x="189" y="55" type="qcurve" smooth="yes"/>
      <point x="150" y="50"/>
      <point x="150" y="51"/>
      <point x="150" y="88" type="qcurve" smooth="yes"/>
      <point x="150" y="126"/>
      <point x="150" y="126"/>
      <point x="182" y="129" type="qcurve"/>
      <point x="272" y="141"/>
      <point x="416" y="298"/>
      <point x="416" y="560" type="qcurve"/>
      <point x="416" y="608"/>
      <point x="416" y="608"/>
      <point x="456" y="608" type="qcurve"/>
      <point x="498" y="608"/>
      <point x="498" y="608"/>
      <point x="498" y="551" type="qcurve"/>
      <point x="498" y="286"/>
      <point x="295" y="68"/>
    </contour>
  </outline>
</glyph>
<glyph name="part5u" format="2">
  <advance width="1589"/>
  <outline>
    <contour>
      <point x="681" y="-26" type="qcurve"/>
      <point x="582" y="-8"/>
      <point x="403" y="71"/>
      <point x="325" y="141" type="qcurve"/>
      <point x="237" y="221"/>
      <point x="120" y="441"/>
      <point x="103" y="566" type="qcurve"/>
      <point x="99" y="608"/>
      <point x="99" y="608"/>
      <point x="141" y="608" type="qcurve"/>
      <point x="186" y="608"/>
      <point x="186" y="608"/>
      <point x="191" y="569" type="qcurve"/>
      <point x="210" y="461"/>
      <point x="301" y="271"/>
      <point x="377" y="199" type="qcurve"/>
      <point x="436" y="141"/>
      <point x="585" y="75"/>
      <point x="677" y="54" type="qcurve"/>
      <point x="722" y="47"/>
      <point x="722" y="47"/>
      <point x="722" y="8" type="qcurve"/>
      <point x="722" y="-31"/>
      <point x="722" y="-31"/>
    </contour>
    <contour>
      <point x="677" y="54" type="qcurve"/>
      <point x="585" y="75"/>
      <point x="436" y="141"/>
      <point x="377" y="199" type="qcurve"/>
      <point x="301" y="271"/>
      <point x="210" y="461"/>
      <point x="191" y="569" type="qcurve"/>
      <point x="186" y="608"/>
      <point x="186" y="608"/>
      <point x="229" y="608" type="qcurve"/>
      <point x="272" y="608"/>
      <point x="272" y="608"/>
      <point x="278" y="572" type="qcurve"/>
      <point x="295" y="484"/>
      <point x="375" y="308"/>
      <point x="425" y="262" type="qcurve" smooth="yes"/>
      <point x="475" y="216"/>
      <point x="590" y="145"/>
      <point x="684" y="130" type="qcurve"/>
      <point x="722" y="125"/>
      <point x="722" y="125"/>
      <point x="722" y="84" type="qcurve"/>
      <point x="722" y="47"/>
      <point x="722" y="47"/>
    </contour>
  </outline>
</glyph>
<glyph name="part5v" format="2">
  <advance width="1589"/>
  <outline>
    <contour>
      <point x="694" y="1434" type="qcurve"/>
      <point x="735" y="1439"/>
      <point x="735" y="1439"/>
      <point x="735" y="1400" type="qcurve"/>
      <point x="735" y="1361"/>
      <point x="735" y="1361"/>
      <point x="690" y="1354" type="qcurve"/>
      <point x="494" y="1320"/>
      <point x="221" y="999"/>
      <point x="191" y="799" type="qcurve"/>
      <point x="186" y="760"/>
      <point x="186" y="760"/>
      <point x="141" y="760" type="qcurve"/>
      <point x="99" y="760"/>
      <point x="99" y="760"/>
      <point x="103" y="802" type="qcurve"/>
      <point x="132" y="1047"/>
      <point x="447" y="1396"/>
    </contour>
    <contour>
      <point x="690" y="1354" type="qcurve"/>
      <point x="735" y="1361"/>
      <point x="735" y="1361"/>
      <point x="735" y="1324" type="qcurve"/>
      <point x="735" y="1284"/>
      <point x="735" y="1284"/>
      <point x="697" y="1278" type="qcurve"/>
      <point x="530" y="1248"/>
      <point x="294" y="961"/>
      <point x="278" y="796" type="qcurve"/>
      <point x="272" y="760"/>
      <point x="272" y="760"/>
      <point x="229" y="760" type="qcurve"/>
      <point x="186" y="760"/>
      <point x="186" y="760"/>
      <point x="191" y="799" type="qcurve"/>
      <point x="221" y="999"/>
      <point x="494" y="1320"/>
    </contour>
  </outline>
</glyph>
<glyph name="part5w" format="2">
  <advance width="1589"/>
  <outline>
    <contour>
      <point x="888" y="1324" type="qcurve"/>
      <point x="888" y="1362"/>
      <point x="888" y="1362"/>
      <point x="920" y="1360" type="qcurve"/>
      <point x="999" y="1350"/>
      <point x="1160" y="1269"/>
      <point x="1198" y="1204" type="qcurve"/>
      <point x="1218" y="1171"/>
      <point x="1218" y="1171"/>
      <point x="1178" y="1154" type="qcurve"/>
      <point x="1141" y="1138"/>
      <point x="1141" y="1138"/>
      <point x="1129" y="1160" type="qcurve"/>
      <point x="1099" y="1213"/>
      <point x="978" y="1275"/>
      <point x="917" y="1282" type="qcurve"/>
      <point x="888" y="1284"/>
      <point x="888" y="1284"/>
    </contour>
    <contour>
      <point x="888" y="1399" type="qcurve"/>
      <point x="888" y="1440"/>
      <point x="888" y="1440"/>
      <point x="924" y="1438" type="qcurve"/>
      <point x="1021" y="1428"/>
      <point x="1225" y="1328"/>
      <point x="1269" y="1247" type="qcurve"/>
      <point x="1293" y="1205"/>
      <point x="1293" y="1205"/>
      <point x="1256" y="1189" type="qcurve"/>
      <point x="1218" y="1171"/>
      <point x="1218" y="1171"/>
      <point x="1198" y="1204" type="qcurve"/>
      <point x="1160" y="1269"/>
      <point x="999" y="1350"/>
      <point x="920" y="1360" type="qcurve"/>
      <point x="888" y="1362"/>
      <point x="888" y="1362"/>
    </contour>
  </outline>
</glyph>
<glyph name="part5x" format="2">
  <advance width="1067"/>
  <outline>
    <contour>
      <point x="651" y="-21" type="qcurve"/>
      <point x="610" y="-29"/>
      <point x="610" y="-29"/>
      <point x="610" y="11" type="qcurve"/>
      <point x="610" y="46"/>
      <point x="610" y="46"/>
      <point x="645" y="54" type="qcurve"/>
      <point x="739" y="74"/>
      <point x="862" y="247"/>
      <point x="862" y="365" type="qcurve"/>
      <point x="862" y="422"/>
      <point x="862" y="422"/>
      <point x="903" y="422" type="qcurve"/>
      <point x="944" y="422"/>
      <point x="944" y="422"/>
      <point x="944" y="356" type="qcurve"/>
      <point x="944" y="212"/>
      <point x="790" y="7"/>
    </contour>
    <contour>
      <point x="645" y="54" type="qcurve"/>
      <point x="610" y="46"/>
      <point x="610" y="46"/>
      <point x="610" y="84" type="qcurve" smooth="yes"/>
      <point x="610" y="123"/>
      <point x="610" y="123"/>
      <point x="640" y="129" type="qcurve"/>
      <point x="715" y="147"/>
      <point x="780" y="263"/>
      <point x="780" y="374" type="qcurve"/>
      <point x="780" y="422"/>
      <point x="780" y="422"/>
      <point x="820" y="422" type="qcurve"/>
      <point x="862" y="422"/>
      <point x="862" y="422"/>
      <point x="862" y="365" type="qcurve"/>
      <point x="862" y="247"/>
      <point x="739" y="74"/>
    </contour>
  </outline>
</glyph>
<glyph name="part5za" format="2">
  <advance width="902"/>
  <outline>
    <contour>
      <point x="656" y="1082" type="qcurve"/>
      <point x="614" y="1082"/>
      <point x="614" y="1082"/>
      <point x="607" y="1104" type="qcurve"/>
      <point x="591" y="1148"/>
      <point x="525" y="1219"/>
      <point x="463" y="1238" type="qcurve"/>
      <point x="448" y="1241"/>
      <point x="448" y="1241"/>
      <point x="448" y="1279" type="qcurve"/>
      <point x="448" y="1318"/>
      <point x="448" y="1318"/>
      <point x="464" y="1316" type="qcurve"/>
      <point x="535" y="1310"/>
      <point x="676" y="1193"/>
      <point x="697" y="1108" type="qcurve"/>
      <point x="701" y="1082"/>
      <point x="701" y="1082"/>
    </contour>
    <contour>
      <point x="743" y="1082" type="qcurve"/>
      <point x="701" y="1082"/>
      <point x="701" y="1082"/>
      <point x="697" y="1108" type="qcurve"/>
      <point x="676" y="1193"/>
      <point x="535" y="1310"/>
      <point x="464" y="1316" type="qcurve"/>
      <point x="448" y="1318"/>
      <point x="448" y="1318"/>
      <point x="448" y="1356" type="qcurve"/>
      <point x="448" y="1394"/>
      <point x="448" y="1394"/>
      <point x="463" y="1393" type="qcurve"/>
      <point x="586" y="1381"/>
      <point x="750" y="1232"/>
      <point x="780" y="1112" type="qcurve"/>
      <point x="784" y="1082"/>
      <point x="784" y="1082"/>
    </contour>
  </outline>
</glyph>
<glyph name="part5zb" format="2">
  <advance width="902"/>
  <outline>
    <contour>
      <point x="576" y="547" type="qcurve"/>
      <point x="545" y="513"/>
      <point x="545" y="513"/>
      <point x="516" y="539" type="qcurve"/>
      <point x="490" y="562"/>
      <point x="490" y="562"/>
      <point x="518" y="594" type="qcurve"/>
      <point x="585" y="677"/>
      <point x="663" y="794"/>
      <point x="684" y="872" type="qcurve"/>
      <point x="699" y="930"/>
      <point x="699" y="930"/>
      <point x="743" y="930" type="qcurve"/>
      <point x="785" y="930"/>
      <point x="785" y="930"/>
      <point x="770" y="863" type="qcurve"/>
      <point x="744" y="768"/>
      <point x="657" y="638"/>
    </contour>
    <contour>
      <point x="518" y="594" type="qcurve"/>
      <point x="490" y="562"/>
      <point x="490" y="562"/>
      <point x="463" y="586" type="qcurve"/>
      <point x="436" y="610"/>
      <point x="436" y="610"/>
      <point x="459" y="637" type="qcurve"/>
      <point x="510" y="700"/>
      <point x="583" y="801"/>
      <point x="604" y="881" type="qcurve"/>
      <point x="615" y="930"/>
      <point x="615" y="930"/>
      <point x="656" y="930" type="qcurve"/>
      <point x="699" y="930"/>
      <point x="699" y="930"/>
      <point x="684" y="872" type="qcurve"/>
      <point x="663" y="794"/>
      <point x="585" y="677"/>
    </contour>
  </outline>
</glyph>
<glyph name="part5zc" format="2">
  <advance width="877"/>
  <outline>
    <contour>
      <point x="471" y="912" type="qcurve"/>
      <point x="590" y="912"/>
      <point x="759" y="779"/>
      <point x="771" y="678" type="qcurve"/>
      <point x="774" y="638"/>
      <point x="774" y="638"/>
      <point x="734" y="638" type="qcurve"/>
      <point x="693" y="638"/>
      <point x="693" y="638"/>
      <point x="692" y="663" type="qcurve"/>
      <point x="684" y="750"/>
      <point x="560" y="836"/>
      <point x="471" y="836" type="qcurve"/>
      <point x="445" y="836"/>
      <point x="445" y="836"/>
      <point x="445" y="878" type="qcurve"/>
      <point x="445" y="912"/>
      <point x="445" y="912"/>
    </contour>
    <contour>
      <point x="471" y="836" type="qcurve"/>
      <point x="560" y="836"/>
      <point x="684" y="750"/>
      <point x="692" y="663" type="qcurve"/>
      <point x="693" y="638"/>
      <point x="693" y="638"/>
      <point x="651" y="638" type="qcurve" smooth="yes"/>
      <point x="609" y="638"/>
      <point x="609" y="638"/>
      <point x="607" y="660" type="qcurve"/>
      <point x="603" y="709"/>
      <point x="532" y="757"/>
      <point x="472" y="760" type="qcurve"/>
      <point x="445" y="760"/>
      <point x="445" y="760"/>
      <point x="445" y="799" type="qcurve"/>
      <point x="445" y="836"/>
      <point x="445" y="836"/>
    </contour>
  </outline>
</glyph>
<glyph name="part5zh" format="2">
  <advance width="984"/>
  <outline>
    <contour>
      <point x="788" y="298" type="qcurve"/>
      <point x="829" y="298"/>
      <point x="829" y="298"/>
      <point x="821" y="271" type="qcurve"/>
      <point x="796" y="196"/>
      <point x="715" y="99"/>
      <point x="616" y="61" type="qcurve"/>
      <point x="570" y="48"/>
      <point x="570" y="48"/>
      <point x="570" y="88" type="qcurve"/>
      <point x="570" y="127"/>
      <point x="570" y="127"/>
      <point x="613" y="140" type="qcurve"/>
      <point x="659" y="159"/>
      <point x="727" y="228"/>
      <point x="742" y="274" type="qcurve"/>
      <point x="748" y="298"/>
      <point x="748" y="298"/>
    </contour>
    <contour>
      <point x="870" y="298" type="qcurve"/>
      <point x="909" y="298"/>
      <point x="909" y="298"/>
      <point x="904" y="268" type="qcurve"/>
      <point x="880" y="160"/>
      <point x="727" y="5"/>
      <point x="617" y="-19" type="qcurve"/>
      <point x="570" y="-28"/>
      <point x="570" y="-28"/>
      <point x="570" y="10" type="qcurve"/>
      <point x="570" y="48"/>
      <point x="570" y="48"/>
      <point x="616" y="61" type="qcurve"/>
      <point x="715" y="99"/>
      <point x="796" y="196"/>
      <point x="821" y="271" type="qcurve"/>
      <point x="829" y="298"/>
      <point x="829" y="298"/>
    </contour>
  </outline>
</glyph>
<glyph name="psrtn1" format="2">
  <advance width="1152"/>
  <outline>
    <contour>
      <point x="564" y="803" type="qcurve"/>
      <point x="564" y="764"/>
      <point x="564" y="764"/>
      <point x="528" y="762" type="qcurve"/>
      <point x="484" y="756"/>
      <point x="394" y="699"/>
      <point x="362" y="643" type="qcurve"/>
      <point x="328" y="581"/>
      <point x="328" y="581"/>
      <point x="328" y="627" type="qcurve"/>
      <point x="328" y="686"/>
      <point x="328" y="686"/>
      <point x="351" y="724" type="qcurve"/>
      <point x="372" y="756"/>
      <point x="468" y="826"/>
      <point x="521" y="837" type="qcurve"/>
      <point x="564" y="844"/>
      <point x="564" y="844"/>
    </contour>
    <contour>
      <point x="564" y="883" type="qcurve"/>
      <point x="564" y="844"/>
      <point x="564" y="844"/>
      <point x="521" y="837" type="qcurve"/>
      <point x="468" y="826"/>
      <point x="372" y="756"/>
      <point x="351" y="724" type="qcurve"/>
      <point x="328" y="686"/>
      <point x="328" y="686"/>
      <point x="328" y="727" type="qcurve"/>
      <point x="328" y="768"/>
      <point x="328" y="768"/>
      <point x="346" y="801" type="qcurve"/>
      <point x="366" y="836"/>
      <point x="461" y="909"/>
      <point x="519" y="916" type="qcurve"/>
      <point x="564" y="921"/>
      <point x="564" y="921"/>
    </contour>
  </outline>
</glyph>
<glyph name="zero.zc" format="2">
  <advance width="1064"/>
  <outline>
    <contour>
      <point x="276" y="1126" type="qcurve"/>
      <point x="234" y="1126"/>
      <point x="234" y="1126"/>
      <point x="244" y="1164" type="qcurve"/>
      <point x="268" y="1227"/>
      <point x="351" y="1291"/>
      <point x="407" y="1308" type="qcurve"/>
      <point x="451" y="1318"/>
      <point x="451" y="1318"/>
      <point x="451" y="1274" type="qcurve"/>
      <point x="451" y="1236"/>
      <point x="451" y="1236"/>
      <point x="407" y="1223" type="qcurve"/>
      <point x="378" y="1212"/>
      <point x="333" y="1172"/>
      <point x="326" y="1150" type="qcurve"/>
      <point x="319" y="1126"/>
      <point x="319" y="1126"/>
    </contour>
    <contour>
      <point x="190" y="1126" type="qcurve"/>
      <point x="149" y="1126"/>
      <point x="149" y="1126"/>
      <point x="158" y="1175" type="qcurve"/>
      <point x="180" y="1263"/>
      <point x="290" y="1366"/>
      <point x="406" y="1392" type="qcurve"/>
      <point x="451" y="1400"/>
      <point x="451" y="1400"/>
      <point x="451" y="1358" type="qcurve"/>
      <point x="451" y="1318"/>
      <point x="451" y="1318"/>
      <point x="407" y="1308" type="qcurve"/>
      <point x="351" y="1291"/>
      <point x="268" y="1227"/>
      <point x="244" y="1164" type="qcurve"/>
      <point x="234" y="1126"/>
      <point x="234" y="1126"/>
    </contour>
  </outline>
</glyph>
<glyph name="zero.zd" format="2">
  <advance width="1152"/>
  <outline>
    <contour>
      <point x="840" y="623" type="qcurve"/>
      <point x="802" y="623"/>
      <point x="802" y="623"/>
      <point x="796" y="652" type="qcurve"/>
      <point x="790" y="684"/>
      <point x="727" y="751"/>
      <point x="686" y="758" type="qcurve"/>
      <point x="648" y="764"/>
      <point x="648" y="764"/>
      <point x="648" y="801" type="qcurve"/>
      <point x="648" y="843"/>
      <point x="648" y="843"/>
      <point x="690" y="838" type="qcurve"/>
      <point x="762" y="829"/>
      <point x="863" y="744"/>
      <point x="874" y="664" type="qcurve"/>
      <point x="880" y="623"/>
      <point x="880" y="623"/>
    </contour>
    <contour>
      <point x="920" y="623" type="qcurve"/>
      <point x="880" y="623"/>
      <point x="880" y="623"/>
      <point x="874" y="664" type="qcurve"/>
      <point x="863" y="744"/>
      <point x="762" y="829"/>
      <point x="690" y="838" type="qcurve"/>
      <point x="648" y="843"/>
      <point x="648" y="843"/>
      <point x="648" y="881" type="qcurve"/>
      <point x="648" y="921"/>
      <point x="648" y="921"/>
      <point x="686" y="919" type="qcurve"/>
      <point x="795" y="912"/>
      <point x="942" y="776"/>
      <point x="953" y="675" type="qcurve"/>
      <point x="958" y="623"/>
      <point x="958" y="623"/>
    </contour>
  </outline>
</glyph>
